<?xml version="1.0" encoding="UTF-8" standalone="no"?>
<!-- Created with Inkscape (http://www.inkscape.org/) -->

<svg
   xmlns:dc="http://purl.org/dc/elements/1.1/"
   xmlns:cc="http://creativecommons.org/ns#"
   xmlns:rdf="http://www.w3.org/1999/02/22-rdf-syntax-ns#"
   xmlns:svg="http://www.w3.org/2000/svg"
   xmlns="http://www.w3.org/2000/svg"
   xmlns:sodipodi="http://sodipodi.sourceforge.net/DTD/sodipodi-0.dtd"
   xmlns:inkscape="http://www.inkscape.org/namespaces/inkscape"
   width="1400"
   height="600"
   viewBox="0 0 1400 600.00001"
   id="svg2"
   version="1.1"
   inkscape:version="0.91 r13725"
   sodipodi:docname="catrpie.svg">
  <defs
     id="defs4" />
  <sodipodi:namedview
     id="base"
     pagecolor="#ffffff"
     bordercolor="#666666"
     borderopacity="1.0"
     inkscape:pageopacity="0.0"
     inkscape:pageshadow="2"
     inkscape:zoom="0.36666719"
     inkscape:cx="127.44037"
     inkscape:cy="2944.2047"
     inkscape:document-units="px"
     inkscape:current-layer="layer1"
     showgrid="false"
     inkscape:window-width="1280"
     inkscape:window-height="737"
     inkscape:window-x="-8"
     inkscape:window-y="-8"
     inkscape:window-maximized="1"
     showguides="true"
     inkscape:guide-bbox="true"
     units="px"
     inkscape:snap-page="true" />
  <metadata
     id="metadata7">
    <rdf:RDF>
      <cc:Work
         rdf:about="">
        <dc:format>image/svg+xml</dc:format>
        <dc:type
           rdf:resource="http://purl.org/dc/dcmitype/StillImage" />
        <dc:title />
      </cc:Work>
    </rdf:RDF>
  </metadata>
  <g
     inkscape:label="Layer 1"
     inkscape:groupmode="layer"
     id="layer1"
     transform="translate(0,-452.36216)">
    <g
       id="g4199"
       transform="translate(85.714286,-1008.5714)"
       inkscape:export-xdpi="89.900002"
       inkscape:export-ydpi="89.900002">
      <g
         transform="translate(-97.142854,17.142857)"
         id="g4184">
        <path
           style="fill:#13ff00;fill-opacity:1;fill-rule:evenodd;stroke:#000000;stroke-width:1px;stroke-linecap:butt;stroke-linejoin:miter;stroke-opacity:1"
           d="m -1222.8572,335.21934 c 39.8634,-39.61294 127.2626,-40.96038 168.5715,-2.85715 32.9693,30.41081 40.03,102.31463 8.5714,134.28572 -42.1299,42.81629 -139.0562,35.38043 -180,-8.57143 -27.9217,-29.97303 -26.1996,-93.98304 2.8571,-122.85714 z"
           id="path4136"
           inkscape:connector-curvature="0"
           sodipodi:nodetypes="aaaaa" />
        <path
           sodipodi:nodetypes="aaaaa"
           inkscape:connector-curvature="0"
           id="path4138"
           d="m -1440.0001,335.21934 c 39.8634,-39.61294 127.2626,-40.96038 168.5715,-2.85715 32.9693,30.41081 40.03,102.31463 8.5714,134.28572 -42.1299,42.81629 -139.0562,35.38043 -180,-8.57143 -27.9217,-29.97303 -26.1996,-93.98304 2.8571,-122.85714 z"
           style="fill:#0018ff;fill-opacity:1;fill-rule:evenodd;stroke:#000000;stroke-width:1px;stroke-linecap:butt;stroke-linejoin:miter;stroke-opacity:1" />
        <path
           sodipodi:nodetypes="aaaaa"
           inkscape:connector-curvature="0"
           id="path4140"
           d="m -2091.4286,329.50505 c 39.8634,-39.61294 127.2626,-40.96038 168.5715,-2.85715 32.9693,30.41081 40.03,102.31463 8.5714,134.28572 -42.1299,42.81629 -139.0562,35.38043 -180,-8.57143 -27.9217,-29.97303 -26.1996,-93.98304 2.8571,-122.85714 z"
           style="fill:#7b3d74;fill-opacity:1;fill-rule:evenodd;stroke:#000000;stroke-width:1px;stroke-linecap:butt;stroke-linejoin:miter;stroke-opacity:1" />
        <path
           sodipodi:nodetypes="aaaaa"
           inkscape:connector-curvature="0"
           id="path4144"
           d="m -1877.1429,318.07649 c 39.8634,-39.61294 127.2626,-40.96038 168.5715,-2.85715 32.9693,30.41081 40.03,102.31463 8.5714,134.28572 -42.1299,42.81629 -139.0562,35.38043 -180,-8.57143 -27.9217,-29.97303 -26.1996,-93.98304 2.8571,-122.85714 z"
           style="fill:#d6953e;fill-opacity:1;fill-rule:evenodd;stroke:#000000;stroke-width:1px;stroke-linecap:butt;stroke-linejoin:miter;stroke-opacity:1" />
        <path
           style="fill:#ff9300;fill-opacity:1;fill-rule:evenodd;stroke:#000000;stroke-width:1px;stroke-linecap:butt;stroke-linejoin:miter;stroke-opacity:1"
           d="m -782.85723,332.3622 c 39.8634,-39.61294 127.2626,-40.96038 168.5715,-2.85715 32.9693,30.41081 40.03,102.31463 8.5714,134.28572 -42.1299,42.81629 -139.0562,35.38043 -180,-8.57143 -27.9217,-29.97303 -26.1996,-93.98304 2.8571,-122.85714 z"
           id="path4146"
           inkscape:connector-curvature="0"
           sodipodi:nodetypes="aaaaa" />
        <path
           style="fill:#ff0015;fill-opacity:1;fill-rule:evenodd;stroke:#000000;stroke-width:1px;stroke-linecap:butt;stroke-linejoin:miter;stroke-opacity:1"
           d="m -1660.0001,315.21934 c 39.8634,-39.61294 127.2626,-40.96038 168.5715,-2.85715 32.9693,30.41081 40.03,102.31463 8.5714,134.28572 -42.1299,42.81629 -139.0562,35.38043 -180,-8.57143 -27.9217,-29.97303 -26.1996,-93.98304 2.8571,-122.85714 z"
           id="path4148"
           inkscape:connector-curvature="0"
           sodipodi:nodetypes="aaaaa" />
        <path
           style="fill:#fffd00;fill-opacity:1;fill-rule:evenodd;stroke:#000000;stroke-width:1px;stroke-linecap:butt;stroke-linejoin:miter;stroke-opacity:1"
           d="m -1002.8573,338.07649 c 39.86348,-39.61294 127.26268,-40.96038 168.57158,-2.85715 32.9693,30.41081 40.03,102.31463 8.5714,134.28572 -42.1299,42.81629 -139.0562,35.38043 -179.99998,-8.57143 -27.9217,-29.97303 -26.1996,-93.98304 2.857,-122.85714 z"
           id="path4174"
           inkscape:connector-curvature="0"
           sodipodi:nodetypes="aaaaa" />
        <path
           style="fill:#955a0a;fill-opacity:1;fill-rule:evenodd;stroke:#000000;stroke-width:0.42201081px;stroke-linecap:butt;stroke-linejoin:miter;stroke-opacity:1"
           d="m -652.02298,312.6014 c 1.39675,9.78467 4.87794,13.81003 6.5821,5.74275 4.79564,-22.702 4.86341,-80.85448 0.50631,-106.24101 -1.4126,-8.23046 -4.60341,-7.88641 -6.07577,0 -4.30138,23.03958 -4.73543,74.41879 -1.01264,100.49826 z"
           id="path4176"
           inkscape:connector-curvature="0"
           sodipodi:nodetypes="aaaaa" />
        <path
           style="fill:#955a0a;fill-opacity:1;fill-rule:evenodd;stroke:#000000;stroke-width:0.42201081px;stroke-linecap:butt;stroke-linejoin:miter;stroke-opacity:1"
           d="m -734.88013,301.17282 c 1.39675,9.78467 4.87794,13.81003 6.5821,5.74275 4.79564,-22.702 4.86341,-80.85448 0.50631,-106.24101 -1.4126,-8.23046 -4.60341,-7.88641 -6.07577,0 -4.30138,23.03958 -4.73543,74.41879 -1.01264,100.49826 z"
           id="path4182"
           inkscape:connector-curvature="0"
           sodipodi:nodetypes="aaaaa" />
      </g>
      <path
         sodipodi:nodetypes="aaaaa"
         inkscape:connector-curvature="0"
         id="path4195"
         d="m -838.83462,346.42603 c -14.09899,-3.21773 -21.95698,28.53365 -21.33787,46.28772 0.40472,11.60619 7.23291,24.56042 16.0034,28.6543 4.57413,2.13509 11.52459,0.64148 14.22524,-4.40835 10.60721,-19.83403 9.98902,-66.22483 -8.89077,-70.53367 z"
         style="fill:#ffffff;fill-opacity:1;fill-rule:evenodd;stroke:#000000;stroke-width:0.69290888px;stroke-linecap:butt;stroke-linejoin:miter;stroke-opacity:1" />
      <path
         style="fill:#ffffff;fill-opacity:1;fill-rule:evenodd;stroke:#000000;stroke-width:0.69290888px;stroke-linecap:butt;stroke-linejoin:miter;stroke-opacity:1"
         d="m -721.69176,354.99746 c -14.09899,-3.21773 -21.95698,28.53365 -21.33787,46.28772 0.40472,11.60619 7.23291,24.56042 16.0034,28.6543 4.57413,2.13509 11.52459,0.64148 14.22524,-4.40835 10.60721,-19.83403 9.98902,-66.22483 -8.89077,-70.53367 z"
         id="path4197"
         inkscape:connector-curvature="0"
         sodipodi:nodetypes="aaaaa" />
    </g>
    <g
       transform="translate(389.10714,-914.64286)"
       id="g4276"
       inkscape:export-xdpi="89.900002"
       inkscape:export-ydpi="89.900002">
      <path
         sodipodi:nodetypes="aaaaa"
         inkscape:connector-curvature="0"
         id="path4278"
         d="m -1240,592.36221 c 39.8634,-39.61294 127.2626,-40.96038 168.5715,-2.85715 32.9693,30.41081 40.03,102.31463 8.5714,134.28572 -42.1299,42.81629 -139.0562,35.38043 -180,-8.57143 -27.9217,-29.97303 -26.1996,-93.98304 2.8571,-122.85714 z"
         style="fill:#5a5a5a;fill-opacity:1;fill-rule:evenodd;stroke:#000000;stroke-width:1px;stroke-linecap:butt;stroke-linejoin:miter;stroke-opacity:1" />
      <path
         style="fill:#ffffff;fill-opacity:1;fill-rule:evenodd;stroke:#000000;stroke-width:1px;stroke-linecap:butt;stroke-linejoin:miter;stroke-opacity:1"
         d="m -1091.4285,620.93363 c -9.6995,4.39291 -9.7167,21.56147 -5.7143,31.42858 3.0795,7.5919 12.0489,16.26058 20,14.28571 10.334,-2.56671 17.2627,-18.34813 14.2857,-28.57143 -3.1053,-10.66364 -18.4541,-21.72497 -28.5714,-17.14286 z"
         id="path4280"
         inkscape:connector-curvature="0"
         sodipodi:nodetypes="aaaaa" />
      <path
         sodipodi:nodetypes="aaaaa"
         inkscape:connector-curvature="0"
         id="path4282"
         d="m -1091.4285,620.93363 c -9.6995,4.39291 -9.7167,21.56147 -5.7143,31.42858 3.0795,7.5919 12.0489,16.26058 20,14.28571 10.334,-2.56671 17.2627,-18.34813 14.2857,-28.57143 -3.1053,-10.66364 -18.4541,-21.72497 -28.5714,-17.14286 z"
         style="fill:#ffffff;fill-opacity:1;fill-rule:evenodd;stroke:#000000;stroke-width:1px;stroke-linecap:butt;stroke-linejoin:miter;stroke-opacity:1" />
      <path
         style="fill:#ffffff;fill-opacity:1;fill-rule:evenodd;stroke:#000000;stroke-width:1px;stroke-linecap:butt;stroke-linejoin:miter;stroke-opacity:1"
         d="m -1091.4285,620.93363 c -9.6995,4.39291 -9.7167,21.56147 -5.7143,31.42858 3.0795,7.5919 12.0489,16.26058 20,14.28571 10.334,-2.56671 17.2627,-18.34813 14.2857,-28.57143 -3.1053,-10.66364 -18.4541,-21.72497 -28.5714,-17.14286 z"
         id="path4284"
         inkscape:connector-curvature="0"
         sodipodi:nodetypes="aaaaa" />
      <path
         sodipodi:nodetypes="aaaaa"
         inkscape:connector-curvature="0"
         id="path4286"
         d="m -1091.4285,620.93363 c -9.6995,4.39291 -9.7167,21.56147 -5.7143,31.42858 3.0795,7.5919 12.0489,16.26058 20,14.28571 10.334,-2.56671 17.2627,-18.34813 14.2857,-28.57143 -3.1053,-10.66364 -18.4541,-21.72497 -28.5714,-17.14286 z"
         style="fill:#ffffff;fill-opacity:1;fill-rule:evenodd;stroke:#000000;stroke-width:1px;stroke-linecap:butt;stroke-linejoin:miter;stroke-opacity:1" />
      <path
         style="fill:#ffffff;fill-opacity:1;fill-rule:evenodd;stroke:#000000;stroke-width:1px;stroke-linecap:butt;stroke-linejoin:miter;stroke-opacity:1"
         d="m -1091.4285,620.93363 c -9.6995,4.39291 -9.7167,21.56147 -5.7143,31.42858 3.0795,7.5919 12.0489,16.26058 20,14.28571 10.334,-2.56671 17.2627,-18.34813 14.2857,-28.57143 -3.1053,-10.66364 -18.4541,-21.72497 -28.5714,-17.14286 z"
         id="path4288"
         inkscape:connector-curvature="0"
         sodipodi:nodetypes="aaaaa" />
      <path
         sodipodi:nodetypes="aaaaa"
         inkscape:connector-curvature="0"
         id="path4290"
         d="m -1091.4285,620.93363 c -9.6995,4.39291 -9.7167,21.56147 -5.7143,31.42858 3.0795,7.5919 12.0489,16.26058 20,14.28571 10.334,-2.56671 17.2627,-18.34813 14.2857,-28.57143 -3.1053,-10.66364 -18.4541,-21.72497 -28.5714,-17.14286 z"
         style="fill:#ffffff;fill-opacity:1;fill-rule:evenodd;stroke:#000000;stroke-width:1px;stroke-linecap:butt;stroke-linejoin:miter;stroke-opacity:1" />
      <path
         style="fill:#ffffff;fill-opacity:1;fill-rule:evenodd;stroke:#000000;stroke-width:1px;stroke-linecap:butt;stroke-linejoin:miter;stroke-opacity:1"
         d="m -1091.4285,620.93363 c -9.6995,4.39291 -9.7167,21.56147 -5.7143,31.42858 3.0795,7.5919 12.0489,16.26058 20,14.28571 10.334,-2.56671 17.2627,-18.34813 14.2857,-28.57143 -3.1053,-10.66364 -18.4541,-21.72497 -28.5714,-17.14286 z"
         id="path4292"
         inkscape:connector-curvature="0"
         sodipodi:nodetypes="aaaaa" />
      <path
         sodipodi:nodetypes="aaaaa"
         inkscape:connector-curvature="0"
         id="path4294"
         d="m -1091.4285,620.93363 c -9.6995,4.39291 -9.7167,21.56147 -5.7143,31.42858 3.0795,7.5919 12.0489,16.26058 20,14.28571 10.334,-2.56671 17.2627,-18.34813 14.2857,-28.57143 -3.1053,-10.66364 -18.4541,-21.72497 -28.5714,-17.14286 z"
         style="fill:#ffffff;fill-opacity:1;fill-rule:evenodd;stroke:#000000;stroke-width:1px;stroke-linecap:butt;stroke-linejoin:miter;stroke-opacity:1" />
      <path
         style="fill:#ffffff;fill-opacity:1;fill-rule:evenodd;stroke:#000000;stroke-width:1px;stroke-linecap:butt;stroke-linejoin:miter;stroke-opacity:1"
         d="m -1091.4285,620.93363 c -9.6995,4.39291 -9.7167,21.56147 -5.7143,31.42858 3.0795,7.5919 12.0489,16.26058 20,14.28571 10.334,-2.56671 17.2627,-18.34813 14.2857,-28.57143 -3.1053,-10.66364 -18.4541,-21.72497 -28.5714,-17.14286 z"
         id="path4296"
         inkscape:connector-curvature="0"
         sodipodi:nodetypes="aaaaa" />
      <path
         sodipodi:nodetypes="aaaaa"
         inkscape:connector-curvature="0"
         id="path4298"
         d="m -1091.4285,620.93363 c -9.6995,4.39291 -9.7167,21.56147 -5.7143,31.42858 3.0795,7.5919 12.0489,16.26058 20,14.28571 10.334,-2.56671 17.2627,-18.34813 14.2857,-28.57143 -3.1053,-10.66364 -18.4541,-21.72497 -28.5714,-17.14286 z"
         style="fill:#ffffff;fill-opacity:1;fill-rule:evenodd;stroke:#000000;stroke-width:1px;stroke-linecap:butt;stroke-linejoin:miter;stroke-opacity:1" />
      <path
         style="fill:#ffffff;fill-opacity:1;fill-rule:evenodd;stroke:#000000;stroke-width:1px;stroke-linecap:butt;stroke-linejoin:miter;stroke-opacity:1"
         d="m -1091.4285,620.93363 c -9.6995,4.39291 -9.7167,21.56147 -5.7143,31.42858 3.0795,7.5919 12.0489,16.26058 20,14.28571 10.334,-2.56671 17.2627,-18.34813 14.2857,-28.57143 -3.1053,-10.66364 -18.4541,-21.72497 -28.5714,-17.14286 z"
         id="path4300"
         inkscape:connector-curvature="0"
         sodipodi:nodetypes="aaaaa" />
    </g>
    <g
       id="g4458"
       transform="translate(-41.60715,-618.75)"
       style="fill:#ac9f9f;fill-opacity:1"
       inkscape:export-xdpi="89.900002"
       inkscape:export-ydpi="89.900002">
      <path
         style="fill:#ac9f9f;fill-opacity:1;fill-rule:evenodd;stroke:#000000;stroke-width:1px;stroke-linecap:butt;stroke-linejoin:miter;stroke-opacity:1"
         d="m -1240,592.36221 c 39.8634,-39.61294 127.2626,-40.96038 168.5715,-2.85715 32.9693,30.41081 40.03,102.31463 8.5714,134.28572 -42.1299,42.81629 -139.0562,35.38043 -180,-8.57143 -27.9217,-29.97303 -26.1996,-93.98304 2.8571,-122.85714 z"
         id="path4460"
         inkscape:connector-curvature="0"
         sodipodi:nodetypes="aaaaa" />
      <path
         sodipodi:nodetypes="aaaaa"
         inkscape:connector-curvature="0"
         id="path4462"
         d="m -1091.4285,620.93363 c -9.6995,4.39291 -9.7167,21.56147 -5.7143,31.42858 3.0795,7.5919 12.0489,16.26058 20,14.28571 10.334,-2.56671 17.2627,-18.34813 14.2857,-28.57143 -3.1053,-10.66364 -18.4541,-21.72497 -28.5714,-17.14286 z"
         style="fill:#ac9f9f;fill-opacity:1;fill-rule:evenodd;stroke:#000000;stroke-width:1px;stroke-linecap:butt;stroke-linejoin:miter;stroke-opacity:1" />
      <path
         style="fill:#ac9f9f;fill-opacity:1;fill-rule:evenodd;stroke:#000000;stroke-width:1px;stroke-linecap:butt;stroke-linejoin:miter;stroke-opacity:1"
         d="m -1091.4285,620.93363 c -9.6995,4.39291 -9.7167,21.56147 -5.7143,31.42858 3.0795,7.5919 12.0489,16.26058 20,14.28571 10.334,-2.56671 17.2627,-18.34813 14.2857,-28.57143 -3.1053,-10.66364 -18.4541,-21.72497 -28.5714,-17.14286 z"
         id="path4464"
         inkscape:connector-curvature="0"
         sodipodi:nodetypes="aaaaa" />
      <path
         sodipodi:nodetypes="aaaaa"
         inkscape:connector-curvature="0"
         id="path4466"
         d="m -1091.4285,620.93363 c -9.6995,4.39291 -9.7167,21.56147 -5.7143,31.42858 3.0795,7.5919 12.0489,16.26058 20,14.28571 10.334,-2.56671 17.2627,-18.34813 14.2857,-28.57143 -3.1053,-10.66364 -18.4541,-21.72497 -28.5714,-17.14286 z"
         style="fill:#ac9f9f;fill-opacity:1;fill-rule:evenodd;stroke:#000000;stroke-width:1px;stroke-linecap:butt;stroke-linejoin:miter;stroke-opacity:1" />
      <path
         style="fill:#ac9f9f;fill-opacity:1;fill-rule:evenodd;stroke:#000000;stroke-width:1px;stroke-linecap:butt;stroke-linejoin:miter;stroke-opacity:1"
         d="m -1091.4285,620.93363 c -9.6995,4.39291 -9.7167,21.56147 -5.7143,31.42858 3.0795,7.5919 12.0489,16.26058 20,14.28571 10.334,-2.56671 17.2627,-18.34813 14.2857,-28.57143 -3.1053,-10.66364 -18.4541,-21.72497 -28.5714,-17.14286 z"
         id="path4468"
         inkscape:connector-curvature="0"
         sodipodi:nodetypes="aaaaa" />
      <path
         sodipodi:nodetypes="aaaaa"
         inkscape:connector-curvature="0"
         id="path4470"
         d="m -1091.4285,620.93363 c -9.6995,4.39291 -9.7167,21.56147 -5.7143,31.42858 3.0795,7.5919 12.0489,16.26058 20,14.28571 10.334,-2.56671 17.2627,-18.34813 14.2857,-28.57143 -3.1053,-10.66364 -18.4541,-21.72497 -28.5714,-17.14286 z"
         style="fill:#ac9f9f;fill-opacity:1;fill-rule:evenodd;stroke:#000000;stroke-width:1px;stroke-linecap:butt;stroke-linejoin:miter;stroke-opacity:1" />
      <path
         style="fill:#ac9f9f;fill-opacity:1;fill-rule:evenodd;stroke:#000000;stroke-width:1px;stroke-linecap:butt;stroke-linejoin:miter;stroke-opacity:1"
         d="m -1091.4285,620.93363 c -9.6995,4.39291 -9.7167,21.56147 -5.7143,31.42858 3.0795,7.5919 12.0489,16.26058 20,14.28571 10.334,-2.56671 17.2627,-18.34813 14.2857,-28.57143 -3.1053,-10.66364 -18.4541,-21.72497 -28.5714,-17.14286 z"
         id="path4472"
         inkscape:connector-curvature="0"
         sodipodi:nodetypes="aaaaa" />
      <path
         sodipodi:nodetypes="aaaaa"
         inkscape:connector-curvature="0"
         id="path4474"
         d="m -1091.4285,620.93363 c -9.6995,4.39291 -9.7167,21.56147 -5.7143,31.42858 3.0795,7.5919 12.0489,16.26058 20,14.28571 10.334,-2.56671 17.2627,-18.34813 14.2857,-28.57143 -3.1053,-10.66364 -18.4541,-21.72497 -28.5714,-17.14286 z"
         style="fill:#ac9f9f;fill-opacity:1;fill-rule:evenodd;stroke:#000000;stroke-width:1px;stroke-linecap:butt;stroke-linejoin:miter;stroke-opacity:1" />
      <path
         style="fill:#ac9f9f;fill-opacity:1;fill-rule:evenodd;stroke:#000000;stroke-width:1px;stroke-linecap:butt;stroke-linejoin:miter;stroke-opacity:1"
         d="m -1091.4285,620.93363 c -9.6995,4.39291 -9.7167,21.56147 -5.7143,31.42858 3.0795,7.5919 12.0489,16.26058 20,14.28571 10.334,-2.56671 17.2627,-18.34813 14.2857,-28.57143 -3.1053,-10.66364 -18.4541,-21.72497 -28.5714,-17.14286 z"
         id="path4476"
         inkscape:connector-curvature="0"
         sodipodi:nodetypes="aaaaa" />
      <path
         sodipodi:nodetypes="aaaaa"
         inkscape:connector-curvature="0"
         id="path4478"
         d="m -1091.4285,620.93363 c -9.6995,4.39291 -9.7167,21.56147 -5.7143,31.42858 3.0795,7.5919 12.0489,16.26058 20,14.28571 10.334,-2.56671 17.2627,-18.34813 14.2857,-28.57143 -3.1053,-10.66364 -18.4541,-21.72497 -28.5714,-17.14286 z"
         style="fill:#ac9f9f;fill-opacity:1;fill-rule:evenodd;stroke:#000000;stroke-width:1px;stroke-linecap:butt;stroke-linejoin:miter;stroke-opacity:1" />
      <path
         style="fill:#ac9f9f;fill-opacity:1;fill-rule:evenodd;stroke:#000000;stroke-width:1px;stroke-linecap:butt;stroke-linejoin:miter;stroke-opacity:1"
         d="m -1091.4285,620.93363 c -9.6995,4.39291 -9.7167,21.56147 -5.7143,31.42858 3.0795,7.5919 12.0489,16.26058 20,14.28571 10.334,-2.56671 17.2627,-18.34813 14.2857,-28.57143 -3.1053,-10.66364 -18.4541,-21.72497 -28.5714,-17.14286 z"
         id="path4480"
         inkscape:connector-curvature="0"
         sodipodi:nodetypes="aaaaa" />
      <path
         sodipodi:nodetypes="aaaaa"
         inkscape:connector-curvature="0"
         id="path4482"
         d="m -1091.4285,620.93363 c -9.6995,4.39291 -9.7167,21.56147 -5.7143,31.42858 3.0795,7.5919 12.0489,16.26058 20,14.28571 10.334,-2.56671 17.2627,-18.34813 14.2857,-28.57143 -3.1053,-10.66364 -18.4541,-21.72497 -28.5714,-17.14286 z"
         style="fill:#ac9f9f;fill-opacity:1;fill-rule:evenodd;stroke:#000000;stroke-width:1px;stroke-linecap:butt;stroke-linejoin:miter;stroke-opacity:1" />
    </g>
    <g
       id="g4496"
       transform="translate(-95,-1207.6786)"
       inkscape:export-xdpi="89.900002"
       inkscape:export-ydpi="89.900002">
      <path
         inkscape:connector-curvature="0"
         id="path4494"
         d="m -2008.5863,1152.3474 368.6009,0 0,371.4582 -368.6009,0 z"
         style="fill:#f3f65d;fill-opacity:1;fill-rule:evenodd;stroke:#000000;stroke-width:0.97044128px;stroke-linecap:butt;stroke-linejoin:miter;stroke-opacity:1" />
      <path
         inkscape:connector-curvature="0"
         id="path4492"
         d="m -2008.7254,1149.3512 0,137.4507 368.8792,0 0,-137.4507 z"
         style="fill:#44ed0b;fill-opacity:1;fill-rule:evenodd;stroke:#000000;stroke-width:0.69227856px;stroke-linecap:butt;stroke-linejoin:miter;stroke-opacity:1" />
    </g>
    <rect
       style="opacity:0.74199997;fill:#ffff00;fill-opacity:1;fill-rule:evenodd;stroke:#100c0c;stroke-width:0.69999999;stroke-linejoin:miter;stroke-miterlimit:4;stroke-dasharray:none;stroke-dashoffset:0;stroke-opacity:1"
       id="rect4500"
       width="57.452427"
       height="154.67961"
       x="-1206.501"
       y="460.16022" />
    <path
       sodipodi:type="spiral"
       style="fill:none;fill-rule:evenodd;stroke:#000000;stroke-width:1px;stroke-linecap:butt;stroke-linejoin:miter;stroke-opacity:1"
       id="path4502"
       sodipodi:cx="283.64624"
       sodipodi:cy="-200.02037"
       sodipodi:expansion="18.780001"
       sodipodi:revolution="41.396935"
       sodipodi:radius="877.43378"
       sodipodi:argument="-253.36615"
       sodipodi:t0="0.046149507"
       d="m 283.64624,-200.02037 c 0,0 0,0 0,0 0,0 0,0 0,0 0,0 0,0 0,0 0,0 0,0 0,0 0,0 0,0 0,0 0,0 0,0 0,0 0,0 0,0 0,0 0,0 0,0 0,0 0,0 0,0 0,0 0,0 0,0 0,0 0,0 0,0 0,0 0,0 0,0 0,0 0,0 0,0 0,0 0,0 0,0 0,0 0,0 0,0 0,0 0,0 0,0 0,0 0,0 0,0 0,0 0,0 0,0 0,0 0,0 0,0 0,0 0,0 0,0 0,0 0,0 0,0 0,0 0,0 0,0 0,0 0,0 0,0 0,0 0,0 0,0 0,0 0,0 0,0 0,0 0,0 0,0 0,0 0,0 0,0 0,0 0,0 0,0 0,0 0,0 0,0 0,0 0,0 0,0 0,0 0,0 0,0 0,0 0,0 0,0 0,0 0,0 0,0 0,0 0,0 0,0 0,0 0,0 0,0 0,0 0,0 0,0 0,0 0,0 0,0 0,0 0,-10e-6 0,-10e-6 0,0 1e-5,0 1e-5,0 1e-5,1e-5 -1e-5,0 -1e-5,0 -2e-5,0 0,-1e-5 0,-1e-5 0,-2e-5 0,-1e-5 2e-5,-1e-5 2e-5,0 10e-6,0 2e-5,2e-5 10e-6,3e-5 -10e-6,1e-5 -3e-5,1e-5 -4e-5,0 -2e-5,-1e-5 -2e-5,-3e-5 -1e-5,-5e-5 1e-5,-3e-5 5e-5,-3e-5 7e-5,-1e-5 3e-5,2e-5 4e-5,6e-5 2e-5,9e-5 -3e-5,5e-5 -9e-5,5e-5 -1.3e-4,2e-5 -6e-5,-3e-5 -6e-5,-1.1e-4 -3e-5,-1.6e-4 5e-5,-7e-5 1.5e-4,-8e-5 2.2e-4,-4e-5 9e-5,7e-5 10e-5,2e-4 4e-5,2.8e-4 -8e-5,1.2e-4 -2.5e-4,1.4e-4 -3.6e-4,6e-5 -1.5e-4,-1.1e-4 -1.7e-4,-3.2e-4 -7e-5,-4.7e-4 1.4e-4,-1.9e-4 4.1e-4,-2.1e-4 6e-4,-8e-5 2.4e-4,1.7e-4 2.7e-4,5.2e-4 1.1e-4,7.6e-4 -2.2e-4,3.1e-4 -6.7e-4,3.5e-4 -9.7e-4,1.3e-4 -4e-4,-2.8e-4 -4.4e-4,-8.4e-4 -1.7e-4,-0.001 3.5e-4,-5e-4 0.001,-5.6e-4 0.002,-2.2e-4 6.3e-4,4.5e-4 7e-4,0.001 2.7e-4,0.002 -5.7e-4,7.9e-4 -0.002,8.8e-4 -0.002,3.3e-4 -9.9e-4,-7.1e-4 -0.001,-0.002 -4.1e-4,-0.003 8.9e-4,-0.001 0.003,-0.001 0.004,-5.1e-4 0.002,0.001 0.002,0.003 6.3e-4,0.005 -0.001,0.002 -0.004,0.002 -0.006,7.7e-4 -0.002,-0.002 -0.003,-0.005 -9.5e-4,-0.007 0.002,-0.003 0.006,-0.003 0.009,-0.001 0.004,0.003 0.004,0.008 0.001,0.0114 -0.003,0.004 -0.01,0.005 -0.0141,0.002 -0.005,-0.004 -0.006,-0.012 -0.002,-0.0173 0.005,-0.007 0.0147,-0.007 0.0212,-0.003 0.008,0.006 0.009,0.018 0.003,0.026 -0.007,0.01 -0.022,0.011 -0.0317,0.004 -0.0122,-0.009 -0.0134,-0.0268 -0.005,-0.0387 0.011,-0.0148 0.0327,-0.0163 0.047,-0.006 0.018,0.0134 0.0198,0.0397 0.007,0.0571 -0.0163,0.0218 -0.0481,0.0239 -0.0692,0.008 -0.0263,-0.0197 -0.0289,-0.0582 -0.01,-0.0837 0.0239,-0.0317 0.0702,-0.0348 0.10102,-0.0116 0.0381,0.0288 0.0419,0.0847 0.0138,0.12171 -0.0347,0.0458 -0.10184,0.0502 -0.14637,0.0165 -0.0549,-0.0417 -0.0602,-0.12228 -0.0196,-0.17569 0.05,-0.0658 0.14658,-0.072 0.21053,-0.0233 0.0786,0.0599 0.0861,0.1754 0.0277,0.25185 -0.0716,0.0937 -0.20953,0.10261 -0.30075,0.0328 -0.11167,-0.0854 -0.12217,-0.24989 -0.0388,-0.35856 0.1018,-0.13278 0.29752,-0.1452 0.42679,-0.0459 0.15764,0.12112 0.17231,0.35368 0.0541,0.50719 -0.14387,0.18687 -0.41977,0.20416 -0.60178,0.0637 -0.22118,-0.17062 -0.24154,-0.49744 -0.075,-0.71292 0.20204,-0.26139 0.58859,-0.28533 0.8433,-0.0881 0.30846,0.23889 0.33657,0.6954 0.10329,0.99605 -0.28204,0.36348 -0.82039,0.39644 -1.17475,0.12096 -0.4277,-0.33249 -0.4663,-0.96644 -0.14148,-1.3835 0.39141,-0.50258 1.13689,-0.5477 1.62707,-0.16526 0.58974,0.46013 0.64244,1.33555 0.19276,1.91086 -0.54015,0.69108 -1.56675,0.75255 -2.24108,0.22457 -0.80877,-0.63325 -0.88036,-1.83553 -0.26128,-2.62486 0.74138,-0.94526 2.14757,-1.02854 3.0703,-0.30361 1.10337,0.86685 1.20013,2.50938 0.35237,3.58667 -1.01224,1.2863 -2.9284,1.39859 -4.18455,0.40846 -1.49769,-1.18051 -1.62784,-3.41309 -0.47292,-4.87597 1.37504,-1.74169 3.97308,-1.89237 5.67462,-0.54691 2.023,1.59966 2.19725,4.61932 0.63174,6.59607 -1.85871,2.34698 -5.36422,2.54824 -7.65797,0.72891 -2.71966,-2.15715 -2.95187,-6.22191 -0.84009,-8.88037 2.50058,-3.14791 7.20836,-3.41554 10.28599,-0.96717 3.63947,2.89534 3.94757,8.34166 1.11225,11.90051 -3.34861,4.20312 -9.64226,4.55743 -13.753,1.27773 -4.84874,-3.86851 -5.25577,-11.1333 -1.46629,-15.87628 4.46421,-5.58749 12.84087,-6.05461 18.30743,-1.68095 6.43196,5.14606 6.96748,14.79443 1.92506,21.08823 -5.92572,7.39632 -17.02713,8.00963 -24.26577,2.20242 -8.49648,-6.81632 -9.1982,-19.57634 -2.51724,-27.89305 7.83265,-9.75037 22.48407,-10.55245 32.02967,-2.87426 11.1781,8.99133 12.09401,25.79754 3.27878,36.74261 -10.31103,12.80225 -29.56977,13.84716 -42.10708,3.73669 -14.64812,-11.8127 -15.83907,-33.86025 -4.25457,-48.20742 13.51983,-16.74406 38.73565,-18.10021 55.13818,-4.83979 19.1218,15.45878 20.66467,44.27069 5.50051,63.00526 -17.65902,21.81684 -50.54897,23.57056 -71.92713,6.24586 -24.86885,-20.15353 -26.86047,-57.66398 -7.08596,-82.0363 22.97917,-28.32211 65.72017,-30.58194 93.48077,-8.03207 32.22605,26.17714 34.78799,74.8342 9.09671,106.42579 -29.79338,36.63579 -85.13622,39.53778 -121.05571,10.29377 -41.61272,-33.87917 -44.89713,-96.77132 -11.63865,-137.57602 38.49162,-47.2252 109.90113,-50.93936 156.21559,-13.14841 53.5493,43.69434 57.74602,124.70559 14.84198,177.22918 -49.55812,60.669568 -141.38488,65.407733 -200.90016,16.740285 -68.67993,-56.161665 -74.02515,-160.161485 -18.86648,-227.543455 63.59246,-77.6847 181.28261,-83.71002 257.50889,-21.24616 87.79954,71.9476 94.58626,205.0226 23.90759,291.184702 C 360.22886,50.608991 209.8779,58.247487 112.56222,-21.661764 0.67580408,-113.53554 -7.914899,-283.27148 82.358429,-393.0984 186.05518,-519.25631 377.52647,-528.91074 501.3772,-427.00937 643.51853,-310.05893 654.36044,-94.234759 539.42256,45.323785 407.62542,205.35298 164.53532,217.5196 7.3953857,87.976817 -172.63886,-60.439538 -186.28227,-334.03531 -40.389313,-510.83972 126.61717,-713.23113 434.31927,-728.51979 633.10264,-564.33584 860.46265,-376.5492 877.58298,-30.741618 692.95126,192.59062 481.95251,447.81667 93.600604,466.9749 -157.13215,259.50016 -443.43695,22.590487 -464.86107,-413.22944 -231.88497,-694.52498 36.202575,-1018.2141 519.92295,-1041.6915 838.03747,-777.98461 1117.5702,-546.26075 1206.3229,-148.13983 1071.7046,185.7958" />
    <path
       sodipodi:type="spiral"
       style="fill:none;fill-rule:evenodd;stroke:#000000;stroke-width:1px;stroke-linecap:butt;stroke-linejoin:miter;stroke-opacity:1"
       id="path4504"
       sodipodi:cx="1290.4698"
       sodipodi:cy="256.86703"
       sodipodi:expansion="18.780001"
       sodipodi:revolution="40"
       sodipodi:radius="193.04306"
       sodipodi:argument="-254.1907"
       sodipodi:t0="0.0461495"
       d="m 1290.4698,256.86703 c 0,0 0,0 0,0 0,0 0,0 0,0 0,0 0,0 0,0 0,0 0,0 0,0 0,0 0,0 0,0 0,0 0,0 0,0 0,0 0,0 0,0 0,0 0,0 0,0 0,0 0,0 0,0 0,0 0,0 0,0 0,0 0,0 0,0 0,0 0,0 0,0 0,0 0,0 0,0 0,0 0,0 0,0 0,0 0,0 0,0 0,0 0,0 0,0 0,0 0,0 0,0 0,0 0,0 0,0 0,0 0,0 0,0 0,0 0,0 0,0 0,0 0,0 0,0 0,0 0,0 0,0 0,0 0,0 0,0 0,0 0,0 0,0 0,0 0,0 0,0 0,10e-6 0,10e-6 0,0 0,0 0,0 0,0 0,0 0,0 0,0 0,0 0,10e-6 0,10e-6 0,0 0,0 0,0 0,0 0,-10e-6 0,-10e-6 0,0 0,0 0,0 0,0 0,10e-6 0,10e-6 0,0 0,0 0,0 0,0 0,-10e-6 0,-10e-6 0,0 0,0 10e-5,0 0,0 0,10e-6 0,10e-6 -10e-5,0 -10e-5,0 -10e-5,0 0,0 0,-10e-6 0,-10e-6 0,0 10e-5,0 10e-5,0 0,0 0,10e-6 0,10e-6 0,1e-5 -10e-5,1e-5 -10e-5,1e-5 0,-1e-5 0,-2e-5 0,-3e-5 0,-1e-5 10e-5,-1e-5 10e-5,0 0,10e-6 0,3e-5 0,4e-5 0,2e-5 -10e-5,2e-5 -10e-5,1e-5 0,-2e-5 0,-6e-5 0,-9e-5 0,-3e-5 10e-5,-3e-5 10e-5,0 10e-5,4e-5 10e-5,10e-5 0,1.4e-4 0,5e-5 -10e-5,5e-5 -2e-4,0 0,-5e-5 0,-1.6e-4 0,-2.2e-4 10e-5,-9e-5 2e-4,-8e-5 3e-4,-10e-6 10e-5,10e-5 10e-5,2.7e-4 0,3.7e-4 -10e-5,1.4e-4 -3e-4,1.3e-4 -4e-4,1e-5 -2e-4,-1.6e-4 -2e-4,-4.3e-4 0,-6e-4 1e-4,-2.2e-4 5e-4,-2e-4 7e-4,-10e-6 3e-4,2.5e-4 3e-4,6.8e-4 0,9.5e-4 -3e-4,3.4e-4 -8e-4,3.2e-4 -0,2e-5 -4e-4,-3.9e-4 -4e-4,-0.001 0,-0.002 5e-4,-5.4e-4 0,-5e-4 0,-2e-5 6e-4,6.1e-4 6e-4,0.002 0,0.002 -8e-4,8.4e-4 -0,7.8e-4 -0,4e-5 -10e-4,-9.5e-4 -9e-4,-0.003 0,-0.004 0,-0.001 0,-0.001 0,-4e-5 0,0.001 0,0.004 0,0.005 -0,0.002 -0,0.002 -0.01,4e-5 -0,-0.002 -0,-0.006 0,-0.008 0,-0.003 0.01,-0.003 0.01,-5e-5 0,0.003 0,0.009 0,0.0124 -0,0.004 -0.011,0.004 -0.015,3e-5 -0.01,-0.005 -0,-0.0133 0,-0.0184 0.01,-0.006 0.016,-0.006 0.022,-10e-6 0.01,0.007 0.01,0.0196 0,0.027 -0.01,0.009 -0.024,0.009 -0.033,-5e-5 -0.011,-0.0106 -0.01,-0.0287 10e-5,-0.0395 0.013,-0.0134 0.035,-0.0123 0.048,1.7e-4 0.016,0.0155 0.015,0.0417 -2e-4,0.0573 -0.019,0.0194 -0.05,0.0178 -0.069,-3.6e-4 -0.023,-0.0223 -0.021,-0.06 5e-4,-0.0826 0.027,-0.0278 0.072,-0.0254 0.099,6.8e-4 0.033,0.032 0.03,0.0859 -9e-4,0.11814 -0.038,0.0395 -0.1026,0.0361 -0.141,-0.001 -0.047,-0.0456 -0.043,-0.12215 0,-0.16784 0.054,-0.0558 0.1453,-0.0509 0.1996,0.002 0.066,0.0644 0.06,0.17253 -0,0.23692 -0.077,0.0783 -0.2046,0.0713 -0.2808,-0.003 -0.093,-0.0906 -0.084,-0.24216 0,-0.33234 0.1071,-0.10929 0.2862,-0.0994 0.3927,0.005 0.1289,0.12651 0.1171,0.33786 -0.01,0.46343 -0.1492,0.15165 -0.3982,0.13773 -0.546,-0.008 -0.1783,-0.17568 -0.1618,-0.46866 0.01,-0.64248 0.2066,-0.20926 0.5508,-0.18979 0.7549,0.012 0.2453,0.24261 0.2223,0.64648 -0.015,0.88578 -0.2845,0.28718 -0.7577,0.26009 -1.0379,-0.018 -0.3358,-0.33319 -0.3039,-0.88693 0.022,-1.21461 0.3897,-0.39206 1.0368,-0.35461 1.4195,0.0264 0.4573,0.45519 0.4133,1.21048 -0.032,1.65687 -0.531,0.53253 -1.4115,0.48103 -1.9315,-0.0383 -0.6195,-0.6187 -0.5592,-1.6437 0.046,-2.24877 0.72,-0.71977 1.9119,-0.64935 2.615,0.0551 0.8353,0.83681 0.7531,2.22107 -0.066,3.03724 -0.9715,0.96824 -2.5773,0.87243 -3.5235,-0.0783 -1.121,-1.1264 -1.0095,-2.98702 0.093,-4.08279 1.3046,-1.29649 3.458,-1.16679 4.7255,0.11042 1.4977,1.5092 1.3471,3.99867 -0.1307,5.46315 -1.744,1.72828 -4.6188,1.55356 -6.309,-0.15437 -1.9921,-2.01305 -1.7897,-5.32915 0.182,-7.27778 2.3211,-2.29389 6.1422,-2.05964 8.3863,0.21418 2.6386,2.67343 2.3678,7.07165 -0.2516,9.6534 -3.076,3.03184 -8.1332,2.71921 -11.1003,-0.29501 -3.4802,-3.53548 -3.1196,-9.3446 0.3453,-12.75102 4.0595,-3.99084 10.7255,-3.57545 14.6323,0.40363 4.5719,4.65639 4.0939,12.29793 -0.471,16.77432 -5.3357,5.2324 -14.087,4.68283 -19.2109,-0.54875 -5.9826,-6.1083 -5.3515,-16.12072 0.6384,-21.98017 6.9859,-6.83383 18.4302,-6.10975 25.1244,0.74159 7.7989,7.98199 6.969,21.05073 -0.8602,28.69141 -9.1116,8.89205 -24.0214,7.94188 -32.7343,-0.99651 -10.1292,-10.39129 -9.0423,-27.3859 1.1528,-37.31248 11.84,-11.5281 31.1934,-10.28613 42.4925,1.33183 13.1086,13.47848 11.6907,35.49841 -1.5367,48.34844 -15.3301,14.89276 -40.3619,13.27555 -54.9629,-1.77084 -16.9052,-17.42081 -15.0624,-45.8517 2.0381,-62.42804 19.7796,-19.17326 52.0435,-17.07521 70.8463,2.343 21.7274,22.43849 19.341,59.02124 -2.6902,80.33169 -25.4335,24.6014 -66.8786,21.8893 -91.0111,-3.08546 -27.8328,-28.80425 -24.7533,-75.71934 3.5347,-103.02521 32.5951,-31.46335 85.6589,-27.96971 116.5306,4.04488 35.5391,36.85493 31.579,96.82538 -4.6237,131.70053 -41.6383,40.1114 -109.3606,35.62628 -148.7275,-5.2797 -45.2368,-47.00539 -40.1613,-123.42181 6.0225,-167.82448 53.0231,-50.97815 139.1832,-45.23919 189.2274,6.8628 57.4048,59.76519 50.9209,156.83762 -7.8124,213.19743 -67.3136,64.5933 -176.5981,57.27359 -240.0231,-8.88483 -42.2245,-44.04425 -59.37,-107.71874 -47.0727,-167.24614" />
    <g
       id="g4714"
       inkscape:export-xdpi="89.900002"
       inkscape:export-ydpi="89.900002"
       transform="translate(177.37544,1009.2912)">
      <g
         style="fill:#87ffee;fill-opacity:1"
         id="g4508">
        <path
           style="fill:#87ffee;fill-opacity:1;fill-rule:evenodd;stroke:#000000;stroke-width:1px;stroke-linecap:butt;stroke-linejoin:miter;stroke-opacity:1"
           d="m 0,452.36216 0,600.00004 1400,0 0,-600.00004 z"
           id="path4506"
           inkscape:connector-curvature="0" />
      </g>
      <g
         transform="matrix(0.99969657,0,0,1.1543706,1128.1741,174.95985)"
         id="g4623">
        <path
           style="fill:#885c15;fill-opacity:1;fill-rule:evenodd;stroke:#000000;stroke-width:1px;stroke-linecap:butt;stroke-linejoin:miter;stroke-opacity:1"
           d="m -519.08066,440.39339 84.69211,-2.73201 13.66002,322.37641 -95.62013,0 z"
           id="path4588"
           inkscape:connector-curvature="0" />
        <g
           id="g4618"
           transform="matrix(1,0.02220609,0,1,0,10.490803)"
           style="fill:#43901a;fill-opacity:1">
          <path
             sodipodi:nodetypes="aaaaa"
             inkscape:connector-curvature="0"
             id="path4610"
             d="m -568.25673,388.48531 c 19.797,-16.09633 58.52597,-15.38117 76.4961,2.73201 23.09864,23.28251 26.26012,75.5037 2.732,98.35212 -22.90304,22.2414 -75.74569,19.52071 -95.62012,-5.46401 -20.13151,-25.3079 -8.69921,-75.21921 16.39202,-95.62012 z"
             style="fill:#43901a;fill-opacity:1;fill-rule:evenodd;stroke:#000000;stroke-width:1px;stroke-linecap:butt;stroke-linejoin:miter;stroke-opacity:1" />
          <path
             style="fill:#43901a;fill-opacity:1;fill-rule:evenodd;stroke:#000000;stroke-width:1px;stroke-linecap:butt;stroke-linejoin:miter;stroke-opacity:1"
             d="m -508.15265,276.47317 c 19.797,-16.09633 58.52597,-15.38117 76.4961,2.73201 23.09864,23.28251 26.26012,75.5037 2.732,98.35212 -22.90304,22.2414 -75.74569,19.52071 -95.62012,-5.46401 -20.13151,-25.3079 -8.69921,-75.21921 16.39202,-95.62012 z"
             id="path4614"
             inkscape:connector-curvature="0"
             sodipodi:nodetypes="aaaaa" />
          <path
             sodipodi:nodetypes="aaaaa"
             inkscape:connector-curvature="0"
             id="path4616"
             d="m -445.31657,391.21731 c 19.797,-16.09633 58.52597,-15.38117 76.4961,2.73201 23.09864,23.28251 26.26012,75.5037 2.732,98.35212 -22.90304,22.2414 -75.74569,19.52071 -95.62012,-5.46401 -20.13151,-25.3079 -8.69921,-75.21921 16.39202,-95.62012 z"
             style="fill:#43901a;fill-opacity:1;fill-rule:evenodd;stroke:#000000;stroke-width:1px;stroke-linecap:butt;stroke-linejoin:miter;stroke-opacity:1" />
        </g>
      </g>
      <g
         id="g4630"
         transform="translate(1264.9176,300.52038)">
        <path
           inkscape:connector-curvature="0"
           id="path4632"
           d="m -519.08066,440.39339 84.69211,-2.73201 13.66002,322.37641 -95.62013,0 z"
           style="fill:#885c15;fill-opacity:1;fill-rule:evenodd;stroke:#000000;stroke-width:1px;stroke-linecap:butt;stroke-linejoin:miter;stroke-opacity:1" />
        <g
           style="fill:#43901a;fill-opacity:1"
           transform="matrix(1,0.02220609,0,1,0,10.490803)"
           id="g4634">
          <path
             style="fill:#43901a;fill-opacity:1;fill-rule:evenodd;stroke:#000000;stroke-width:1px;stroke-linecap:butt;stroke-linejoin:miter;stroke-opacity:1"
             d="m -568.25673,388.48531 c 19.797,-16.09633 58.52597,-15.38117 76.4961,2.73201 23.09864,23.28251 26.26012,75.5037 2.732,98.35212 -22.90304,22.2414 -75.74569,19.52071 -95.62012,-5.46401 -20.13151,-25.3079 -8.69921,-75.21921 16.39202,-95.62012 z"
             id="path4636"
             inkscape:connector-curvature="0"
             sodipodi:nodetypes="aaaaa" />
          <path
             sodipodi:nodetypes="aaaaa"
             inkscape:connector-curvature="0"
             id="path4638"
             d="m -508.15265,276.47317 c 19.797,-16.09633 58.52597,-15.38117 76.4961,2.73201 23.09864,23.28251 26.26012,75.5037 2.732,98.35212 -22.90304,22.2414 -75.74569,19.52071 -95.62012,-5.46401 -20.13151,-25.3079 -8.69921,-75.21921 16.39202,-95.62012 z"
             style="fill:#43901a;fill-opacity:1;fill-rule:evenodd;stroke:#000000;stroke-width:1px;stroke-linecap:butt;stroke-linejoin:miter;stroke-opacity:1" />
          <path
             style="fill:#43901a;fill-opacity:1;fill-rule:evenodd;stroke:#000000;stroke-width:1px;stroke-linecap:butt;stroke-linejoin:miter;stroke-opacity:1"
             d="m -445.31657,391.21731 c 19.797,-16.09633 58.52597,-15.38117 76.4961,2.73201 23.09864,23.28251 26.26012,75.5037 2.732,98.35212 -22.90304,22.2414 -75.74569,19.52071 -95.62012,-5.46401 -20.13151,-25.3079 -8.69921,-75.21921 16.39202,-95.62012 z"
             id="path4640"
             inkscape:connector-curvature="0"
             sodipodi:nodetypes="aaaaa" />
        </g>
      </g>
      <g
         transform="matrix(0.99940305,0,0,1.314244,920.40317,56.141029)"
         id="g4642">
        <path
           style="fill:#885c15;fill-opacity:1;fill-rule:evenodd;stroke:#000000;stroke-width:1px;stroke-linecap:butt;stroke-linejoin:miter;stroke-opacity:1"
           d="m -519.08066,440.39339 84.69211,-2.73201 13.66002,322.37641 -95.62013,0 z"
           id="path4644"
           inkscape:connector-curvature="0" />
        <g
           id="g4646"
           transform="matrix(1,0.02220609,0,1,0,10.490803)"
           style="fill:#43901a;fill-opacity:1">
          <path
             sodipodi:nodetypes="aaaaa"
             inkscape:connector-curvature="0"
             id="path4648"
             d="m -568.25673,388.48531 c 19.797,-16.09633 58.52597,-15.38117 76.4961,2.73201 23.09864,23.28251 26.26012,75.5037 2.732,98.35212 -22.90304,22.2414 -75.74569,19.52071 -95.62012,-5.46401 -20.13151,-25.3079 -8.69921,-75.21921 16.39202,-95.62012 z"
             style="fill:#43901a;fill-opacity:1;fill-rule:evenodd;stroke:#000000;stroke-width:1px;stroke-linecap:butt;stroke-linejoin:miter;stroke-opacity:1" />
          <path
             style="fill:#43901a;fill-opacity:1;fill-rule:evenodd;stroke:#000000;stroke-width:1px;stroke-linecap:butt;stroke-linejoin:miter;stroke-opacity:1"
             d="m -508.15265,276.47317 c 19.797,-16.09633 58.52597,-15.38117 76.4961,2.73201 23.09864,23.28251 26.26012,75.5037 2.732,98.35212 -22.90304,22.2414 -75.74569,19.52071 -95.62012,-5.46401 -20.13151,-25.3079 -8.69921,-75.21921 16.39202,-95.62012 z"
             id="path4650"
             inkscape:connector-curvature="0"
             sodipodi:nodetypes="aaaaa" />
          <path
             sodipodi:nodetypes="aaaaa"
             inkscape:connector-curvature="0"
             id="path4652"
             d="m -445.31657,391.21731 c 19.797,-16.09633 58.52597,-15.38117 76.4961,2.73201 23.09864,23.28251 26.26012,75.5037 2.732,98.35212 -22.90304,22.2414 -75.74569,19.52071 -95.62012,-5.46401 -20.13151,-25.3079 -8.69921,-75.21921 16.39202,-95.62012 z"
             style="fill:#43901a;fill-opacity:1;fill-rule:evenodd;stroke:#000000;stroke-width:1px;stroke-linecap:butt;stroke-linejoin:miter;stroke-opacity:1" />
        </g>
      </g>
      <g
         id="g4654"
         transform="matrix(0.68915792,0,0,0.75222954,517.02597,486.24333)">
        <path
           inkscape:connector-curvature="0"
           id="path4656"
           d="m -519.08066,440.39339 84.69211,-2.73201 13.66002,322.37641 -95.62013,0 z"
           style="fill:#885c15;fill-opacity:1;fill-rule:evenodd;stroke:#000000;stroke-width:1px;stroke-linecap:butt;stroke-linejoin:miter;stroke-opacity:1" />
        <g
           style="fill:#43901a;fill-opacity:1"
           transform="matrix(1,0.02220609,0,1,0,10.490803)"
           id="g4658">
          <path
             style="fill:#43901a;fill-opacity:1;fill-rule:evenodd;stroke:#000000;stroke-width:1px;stroke-linecap:butt;stroke-linejoin:miter;stroke-opacity:1"
             d="m -568.25673,388.48531 c 19.797,-16.09633 58.52597,-15.38117 76.4961,2.73201 23.09864,23.28251 26.26012,75.5037 2.732,98.35212 -22.90304,22.2414 -75.74569,19.52071 -95.62012,-5.46401 -20.13151,-25.3079 -8.69921,-75.21921 16.39202,-95.62012 z"
             id="path4660"
             inkscape:connector-curvature="0"
             sodipodi:nodetypes="aaaaa" />
          <path
             sodipodi:nodetypes="aaaaa"
             inkscape:connector-curvature="0"
             id="path4662"
             d="m -508.15265,276.47317 c 19.797,-16.09633 58.52597,-15.38117 76.4961,2.73201 23.09864,23.28251 26.26012,75.5037 2.732,98.35212 -22.90304,22.2414 -75.74569,19.52071 -95.62012,-5.46401 -20.13151,-25.3079 -8.69921,-75.21921 16.39202,-95.62012 z"
             style="fill:#43901a;fill-opacity:1;fill-rule:evenodd;stroke:#000000;stroke-width:1px;stroke-linecap:butt;stroke-linejoin:miter;stroke-opacity:1" />
          <path
             style="fill:#43901a;fill-opacity:1;fill-rule:evenodd;stroke:#000000;stroke-width:1px;stroke-linecap:butt;stroke-linejoin:miter;stroke-opacity:1"
             d="m -445.31657,391.21731 c 19.797,-16.09633 58.52597,-15.38117 76.4961,2.73201 23.09864,23.28251 26.26012,75.5037 2.732,98.35212 -22.90304,22.2414 -75.74569,19.52071 -95.62012,-5.46401 -20.13151,-25.3079 -8.69921,-75.21921 16.39202,-95.62012 z"
             id="path4664"
             inkscape:connector-curvature="0"
             sodipodi:nodetypes="aaaaa" />
        </g>
      </g>
      <g
         transform="translate(573.72073,295.05638)"
         id="g4666">
        <path
           style="fill:#885c15;fill-opacity:1;fill-rule:evenodd;stroke:#000000;stroke-width:1px;stroke-linecap:butt;stroke-linejoin:miter;stroke-opacity:1"
           d="m -519.08066,440.39339 84.69211,-2.73201 13.66002,322.37641 -95.62013,0 z"
           id="path4668"
           inkscape:connector-curvature="0" />
        <g
           id="g4670"
           transform="matrix(1,0.02220609,0,1,0,10.490803)"
           style="fill:#43901a;fill-opacity:1">
          <path
             sodipodi:nodetypes="aaaaa"
             inkscape:connector-curvature="0"
             id="path4672"
             d="m -568.25673,388.48531 c 19.797,-16.09633 58.52597,-15.38117 76.4961,2.73201 23.09864,23.28251 26.26012,75.5037 2.732,98.35212 -22.90304,22.2414 -75.74569,19.52071 -95.62012,-5.46401 -20.13151,-25.3079 -8.69921,-75.21921 16.39202,-95.62012 z"
             style="fill:#43901a;fill-opacity:1;fill-rule:evenodd;stroke:#000000;stroke-width:1px;stroke-linecap:butt;stroke-linejoin:miter;stroke-opacity:1" />
          <path
             style="fill:#43901a;fill-opacity:1;fill-rule:evenodd;stroke:#000000;stroke-width:1px;stroke-linecap:butt;stroke-linejoin:miter;stroke-opacity:1"
             d="m -508.15265,276.47317 c 19.797,-16.09633 58.52597,-15.38117 76.4961,2.73201 23.09864,23.28251 26.26012,75.5037 2.732,98.35212 -22.90304,22.2414 -75.74569,19.52071 -95.62012,-5.46401 -20.13151,-25.3079 -8.69921,-75.21921 16.39202,-95.62012 z"
             id="path4674"
             inkscape:connector-curvature="0"
             sodipodi:nodetypes="aaaaa" />
          <path
             sodipodi:nodetypes="aaaaa"
             inkscape:connector-curvature="0"
             id="path4676"
             d="m -445.31657,391.21731 c 19.797,-16.09633 58.52597,-15.38117 76.4961,2.73201 23.09864,23.28251 26.26012,75.5037 2.732,98.35212 -22.90304,22.2414 -75.74569,19.52071 -95.62012,-5.46401 -20.13151,-25.3079 -8.69921,-75.21921 16.39202,-95.62012 z"
             style="fill:#43901a;fill-opacity:1;fill-rule:evenodd;stroke:#000000;stroke-width:1px;stroke-linecap:butt;stroke-linejoin:miter;stroke-opacity:1" />
        </g>
      </g>
      <g
         id="g4678"
         transform="matrix(0.99982395,0,0,1.0882104,811.32184,227.99161)">
        <path
           inkscape:connector-curvature="0"
           id="path4680"
           d="m -519.08066,440.39339 84.69211,-2.73201 13.66002,322.37641 -95.62013,0 z"
           style="fill:#885c15;fill-opacity:1;fill-rule:evenodd;stroke:#000000;stroke-width:1px;stroke-linecap:butt;stroke-linejoin:miter;stroke-opacity:1" />
        <g
           style="fill:#43901a;fill-opacity:1"
           transform="matrix(1,0.02220609,0,1,0,10.490803)"
           id="g4682">
          <path
             style="fill:#43901a;fill-opacity:1;fill-rule:evenodd;stroke:#000000;stroke-width:1px;stroke-linecap:butt;stroke-linejoin:miter;stroke-opacity:1"
             d="m -568.25673,388.48531 c 19.797,-16.09633 58.52597,-15.38117 76.4961,2.73201 23.09864,23.28251 26.26012,75.5037 2.732,98.35212 -22.90304,22.2414 -75.74569,19.52071 -95.62012,-5.46401 -20.13151,-25.3079 -8.69921,-75.21921 16.39202,-95.62012 z"
             id="path4684"
             inkscape:connector-curvature="0"
             sodipodi:nodetypes="aaaaa" />
          <path
             sodipodi:nodetypes="aaaaa"
             inkscape:connector-curvature="0"
             id="path4686"
             d="m -508.15265,276.47317 c 19.797,-16.09633 58.52597,-15.38117 76.4961,2.73201 23.09864,23.28251 26.26012,75.5037 2.732,98.35212 -22.90304,22.2414 -75.74569,19.52071 -95.62012,-5.46401 -20.13151,-25.3079 -8.69921,-75.21921 16.39202,-95.62012 z"
             style="fill:#43901a;fill-opacity:1;fill-rule:evenodd;stroke:#000000;stroke-width:1px;stroke-linecap:butt;stroke-linejoin:miter;stroke-opacity:1" />
          <path
             style="fill:#43901a;fill-opacity:1;fill-rule:evenodd;stroke:#000000;stroke-width:1px;stroke-linecap:butt;stroke-linejoin:miter;stroke-opacity:1"
             d="m -445.31657,391.21731 c 19.797,-16.09633 58.52597,-15.38117 76.4961,2.73201 23.09864,23.28251 26.26012,75.5037 2.732,98.35212 -22.90304,22.2414 -75.74569,19.52071 -95.62012,-5.46401 -20.13151,-25.3079 -8.69921,-75.21921 16.39202,-95.62012 z"
             id="path4688"
             inkscape:connector-curvature="0"
             sodipodi:nodetypes="aaaaa" />
        </g>
      </g>
      <g
         transform="matrix(1.7887022,0,0,1.170638,1950.3379,178.91663)"
         id="g4690">
        <path
           style="fill:#885c15;fill-opacity:1;fill-rule:evenodd;stroke:#000000;stroke-width:1px;stroke-linecap:butt;stroke-linejoin:miter;stroke-opacity:1"
           d="m -519.08066,440.39339 84.69211,-2.73201 13.66002,322.37641 -95.62013,0 z"
           id="path4692"
           inkscape:connector-curvature="0" />
        <g
           id="g4694"
           transform="matrix(1,0.02220609,0,1,0,10.490803)"
           style="fill:#43901a;fill-opacity:1">
          <path
             sodipodi:nodetypes="aaaaa"
             inkscape:connector-curvature="0"
             id="path4696"
             d="m -568.25673,388.48531 c 19.797,-16.09633 58.52597,-15.38117 76.4961,2.73201 23.09864,23.28251 26.26012,75.5037 2.732,98.35212 -22.90304,22.2414 -75.74569,19.52071 -95.62012,-5.46401 -20.13151,-25.3079 -8.69921,-75.21921 16.39202,-95.62012 z"
             style="fill:#43901a;fill-opacity:1;fill-rule:evenodd;stroke:#000000;stroke-width:1px;stroke-linecap:butt;stroke-linejoin:miter;stroke-opacity:1" />
          <path
             style="fill:#43901a;fill-opacity:1;fill-rule:evenodd;stroke:#000000;stroke-width:1px;stroke-linecap:butt;stroke-linejoin:miter;stroke-opacity:1"
             d="m -508.15265,276.47317 c 19.797,-16.09633 58.52597,-15.38117 76.4961,2.73201 23.09864,23.28251 26.26012,75.5037 2.732,98.35212 -22.90304,22.2414 -75.74569,19.52071 -95.62012,-5.46401 -20.13151,-25.3079 -8.69921,-75.21921 16.39202,-95.62012 z"
             id="path4698"
             inkscape:connector-curvature="0"
             sodipodi:nodetypes="aaaaa" />
          <path
             sodipodi:nodetypes="aaaaa"
             inkscape:connector-curvature="0"
             id="path4700"
             d="m -445.31657,391.21731 c 19.797,-16.09633 58.52597,-15.38117 76.4961,2.73201 23.09864,23.28251 26.26012,75.5037 2.732,98.35212 -22.90304,22.2414 -75.74569,19.52071 -95.62012,-5.46401 -20.13151,-25.3079 -8.69921,-75.21921 16.39202,-95.62012 z"
             style="fill:#43901a;fill-opacity:1;fill-rule:evenodd;stroke:#000000;stroke-width:1px;stroke-linecap:butt;stroke-linejoin:miter;stroke-opacity:1" />
        </g>
      </g>
      <g
         id="g4702"
         transform="matrix(0.46831819,0,0,0.32228585,743.26721,821.338)">
        <path
           inkscape:connector-curvature="0"
           id="path4704"
           d="m -519.08066,440.39339 84.69211,-2.73201 13.66002,322.37641 -95.62013,0 z"
           style="fill:#885c15;fill-opacity:1;fill-rule:evenodd;stroke:#000000;stroke-width:1px;stroke-linecap:butt;stroke-linejoin:miter;stroke-opacity:1" />
        <g
           style="fill:#43901a;fill-opacity:1"
           transform="matrix(1,0.02220609,0,1,0,10.490803)"
           id="g4706">
          <path
             style="fill:#43901a;fill-opacity:1;fill-rule:evenodd;stroke:#000000;stroke-width:1px;stroke-linecap:butt;stroke-linejoin:miter;stroke-opacity:1"
             d="m -568.25673,388.48531 c 19.797,-16.09633 58.52597,-15.38117 76.4961,2.73201 23.09864,23.28251 26.26012,75.5037 2.732,98.35212 -22.90304,22.2414 -75.74569,19.52071 -95.62012,-5.46401 -20.13151,-25.3079 -8.69921,-75.21921 16.39202,-95.62012 z"
             id="path4708"
             inkscape:connector-curvature="0"
             sodipodi:nodetypes="aaaaa" />
          <path
             sodipodi:nodetypes="aaaaa"
             inkscape:connector-curvature="0"
             id="path4710"
             d="m -508.15265,276.47317 c 19.797,-16.09633 58.52597,-15.38117 76.4961,2.73201 23.09864,23.28251 26.26012,75.5037 2.732,98.35212 -22.90304,22.2414 -75.74569,19.52071 -95.62012,-5.46401 -20.13151,-25.3079 -8.69921,-75.21921 16.39202,-95.62012 z"
             style="fill:#43901a;fill-opacity:1;fill-rule:evenodd;stroke:#000000;stroke-width:1px;stroke-linecap:butt;stroke-linejoin:miter;stroke-opacity:1" />
          <path
             style="fill:#43901a;fill-opacity:1;fill-rule:evenodd;stroke:#000000;stroke-width:1px;stroke-linecap:butt;stroke-linejoin:miter;stroke-opacity:1"
             d="m -445.31657,391.21731 c 19.797,-16.09633 58.52597,-15.38117 76.4961,2.73201 23.09864,23.28251 26.26012,75.5037 2.732,98.35212 -22.90304,22.2414 -75.74569,19.52071 -95.62012,-5.46401 -20.13151,-25.3079 -8.69921,-75.21921 16.39202,-95.62012 z"
             id="path4712"
             inkscape:connector-curvature="0"
             sodipodi:nodetypes="aaaaa" />
        </g>
      </g>
    </g>
    <g
       id="g4240"
       transform="translate(10.928014,-49.176063)"
       inkscape:export-xdpi="89.199997"
       inkscape:export-ydpi="89.199997">
      <path
         inkscape:connector-curvature="0"
         id="path4766"
         d="m -589.48835,-1344.8871 -251.34434,4.9001 259.54034,255.5197 z"
         style="fill:#ff1b00;fill-opacity:1;fill-rule:evenodd;stroke:#000000;stroke-width:1px;stroke-linecap:butt;stroke-linejoin:miter;stroke-opacity:1" />
      <path
         sodipodi:nodetypes="zzzzzz"
         inkscape:connector-curvature="0"
         id="path4768"
         d="m -377.01648,-1422.833 c 23.58066,34.8294 59.58423,205.7386 30.05204,270.4684 -29.53219,64.7298 -189.20461,105.3091 -232.22029,60.1041 -43.01568,-45.205 -34.43462,-242.2882 -16.39203,-275.9324 18.04259,-33.6442 48.51504,-8.2796 71.03209,-2.732 22.51705,5.5476 123.94753,-86.7375 147.52819,-51.9081 z"
         style="fill:#ff1b00;fill-opacity:1;fill-rule:evenodd;stroke:#000000;stroke-width:1px;stroke-linecap:butt;stroke-linejoin:miter;stroke-opacity:1" />
      <path
         transform="matrix(0.54704002,0.83710646,-0.94321188,0.33219175,0,0)"
         d="m -1451.1973,-411.05746 a 24.412125,24.146618 0 0 1 -9.1765,-31.65585 24.412125,24.146618 0 0 1 31.2829,-11.27064 24.412125,24.146618 0 0 1 13.5567,30.07775 24.412125,24.146618 0 0 1 -29.3848,15.48207"
         sodipodi:open="true"
         sodipodi:end="1.831723"
         sodipodi:start="2.111988"
         sodipodi:ry="24.146618"
         sodipodi:rx="24.412125"
         sodipodi:cy="-431.75342"
         sodipodi:cx="-1438.6212"
         sodipodi:type="arc"
         id="path4770"
         style="opacity:0.74199997;fill:#000000;fill-opacity:1;fill-rule:evenodd;stroke:#100c0c;stroke-width:0.41681072;stroke-linejoin:miter;stroke-miterlimit:4;stroke-dasharray:none;stroke-dashoffset:0;stroke-opacity:1" />
    </g>
    <path
       style="opacity:0.74199997;fill:#9a6216;fill-opacity:1;fill-rule:evenodd;stroke:#100c0c;stroke-width:0.175;stroke-linejoin:miter;stroke-miterlimit:4;stroke-dasharray:none;stroke-dashoffset:0;stroke-opacity:1"
       d=""
       id="path4273"
       inkscape:connector-curvature="0"
       transform="translate(0,452.36216)" />
    <path
       style="opacity:0.74199997;fill:#000000;fill-opacity:0;fill-rule:evenodd;stroke:#100c0c;stroke-width:0.69999999;stroke-linejoin:miter;stroke-miterlimit:4;stroke-dasharray:none;stroke-dashoffset:0;stroke-opacity:1"
       id="path4374"
       d="m 255.6573,-1621.2792 c 1.04962,-0.2713 2.01165,-0.757 2.96997,-1.2505 2.63398,-1.4153 5.23364,-2.8896 7.90507,-4.234 2.06083,-1.0373 4.17203,-1.9698 6.28181,-2.9019 2.40509,-1.0985 4.85748,-2.0774 7.3367,-2.9932 1.19265,-0.3559 2.33089,-0.8911 3.53433,-1.21 0.77628,-0.057 1.5196,-0.2868 2.28372,-0.4264 0.6455,-0.1025 1.29208,-0.1359 1.93226,-0.2655 0.51103,-0.12 1.00598,-0.2779 1.52914,-0.3505 0.92954,-0.069 1.83762,-0.3534 2.73036,-0.6106 1.00441,-0.3823 2.05643,-0.6039 3.084,-0.9046 0.3178,-0.013 0.59046,-0.2849 0.91409,-0.259 0.52916,0.042 1.01855,0.4587 1.4237,0.7462 1.63279,1.4252 3.07337,3.0636 4.40631,4.7684 0.99719,1.3642 1.84249,2.8312 2.67431,4.2998 0.46821,0.8251 0.88948,1.6722 1.17544,2.5781 0.24155,0.8887 0.49668,1.7696 0.82044,2.6319 0.17451,0.5743 0.39829,1.1261 0.64572,1.6719 0.26998,0.4308 0.37612,0.922 0.531,1.397 0.15081,0.4714 0.19928,0.9635 0.3315,1.4392 0.18394,0.4406 0.33665,0.887 0.38627,1.3634 -0.002,0.2851 -0.0243,0.6469 -0.30852,0.809 -3.51579,2.0056 -2.23783,1.7127 -4.10162,2.049 -1.51863,0.182 -2.99477,0.5774 -4.48003,0.9245 -2.01055,0.5124 -4.01989,1.0294 -6.03702,1.5153 -2.72748,0.6714 -5.49316,1.1527 -8.24878,1.6873 -0.37426,0.074 -0.74853,0.1472 -1.12279,0.2207 0,0 2.7401,-2.0682 2.7401,-2.0682 l 0,0 c 0.35823,-0.062 0.71647,-0.1232 1.07471,-0.1848 2.76936,-0.4884 5.52443,-1.0374 8.25463,-1.7155 2.04335,-0.5051 4.069,-1.0788 6.11512,-1.5734 1.50885,-0.3723 3.01792,-0.7309 4.5535,-0.9787 1.61127,-0.4674 0.71062,-0.2595 -2.17314,1.4865 -0.0607,0.037 0.12301,-0.071 0.18702,-0.102 0.0519,-0.025 0.11625,-0.027 0.16006,-0.065 0.0902,-0.077 0.0884,-0.2203 0.10289,-0.3208 0.0331,-0.4526 -0.17661,-0.8746 -0.34101,-1.2861 -0.12953,-0.472 -0.17652,-0.9571 -0.32314,-1.4248 -0.15041,-0.4636 -0.22998,-0.95 -0.50602,-1.3663 -0.24671,-0.5598 -0.46056,-1.1262 -0.6136,-1.7202 -0.30608,-0.8739 -0.57679,-1.7565 -0.83236,-2.6466 -0.26258,-0.8901 -0.67039,-1.7201 -1.0944,-2.5435 -0.74771,-1.4909 -1.56376,-2.9515 -2.51608,-4.3226 -1.31073,-1.6892 -2.71707,-3.3308 -4.45579,-4.5975 -1.07904,-0.6108 -1.13215,-0.5161 -2.23257,-0.1957 -1.01628,0.248 -2.02303,0.5251 -3.01514,0.8595 -0.93663,0.2681 -1.87706,0.5426 -2.84857,0.6492 -0.51094,0.1016 -1.00439,0.2724 -1.52034,0.3503 -0.63089,0.1031 -1.27345,0.1136 -1.90067,0.2454 -0.76196,0.1522 -1.5172,0.3353 -2.28324,0.4637 -1.12282,0.3278 -2.22188,0.7374 -3.3362,1.092 -2.4759,0.8954 -4.91367,1.8855 -7.30189,2.996 -2.09065,0.9424 -4.18991,1.8679 -6.24302,2.8908 -2.70296,1.3576 -5.3355,2.8434 -7.98439,4.3026 -1.0282,0.5335 -2.07779,1.0595 -3.21959,1.3028 0,0 2.95575,-2.223 2.95575,-2.223 z"
       inkscape:connector-curvature="0" />
    <path
       style="opacity:0.74199997;fill:#000000;fill-opacity:0;fill-rule:evenodd;stroke:#100c0c;stroke-width:0.69999999;stroke-linejoin:miter;stroke-miterlimit:4;stroke-dasharray:none;stroke-dashoffset:0;stroke-opacity:1"
       id="path4376"
       d="m 255.67691,-1619.3913 c 0.61445,1.7048 1.82947,3.1258 2.95366,4.5165 1.8763,2.1848 4.0444,4.1051 6.31874,5.8647 0.8081,0.6383 1.70654,1.1293 2.57988,1.6647 0.71494,0.4529 1.40141,0.9452 2.08901,1.4383 0.88207,0.5421 1.77289,1.2139 2.82527,1.3737 0.21396,0.032 0.43169,0.031 0.64753,0.047 1.74292,-0.1218 3.42358,-0.6303 5.00464,-1.3546 0.58007,-0.2115 1.05778,-0.6143 1.6142,-0.8713 0.51612,-0.2384 0.0501,0.023 0.48555,-0.2349 1.20078,-0.5752 0.64472,-0.3147 -2.75917,1.594 -0.0711,0.04 0.13337,-0.094 0.19911,-0.142 0.20054,-0.1471 0.3848,-0.313 0.5767,-0.471 1.43859,-1.3262 3.12755,-2.1072 4.84725,-3.1008 0.0942,-0.044 0.3721,-0.1832 0.2825,-0.1308 -0.96395,0.5633 -3.86707,2.2338 -2.90667,1.6644 1.10296,-0.6539 2.56833,-1.8623 4.05252,-2.1331 0.46733,-0.094 0.9551,0.01 1.41478,-0.1121 0.0673,-0.017 0.13468,-0.033 0.20203,-0.05 0,0 -2.94177,2.2278 -2.94177,2.2278 l 0,0 c -0.0706,0.011 -0.14124,0.022 -0.21185,0.033 -0.46515,0.022 -0.93709,0.017 -1.39019,0.14 -0.20022,0.066 -0.22639,0.067 -0.41703,0.159 -0.0698,0.034 -0.27254,0.1482 -0.2055,0.1091 6.15844,-3.5836 1.3897,-0.7667 -0.72204,0.3938 5.54361,-3.2069 2.46663,-1.6215 1.39802,-0.5782 -1.27122,1.1249 -2.69384,2.0218 -4.28906,2.7018 -0.68369,0.3129 -1.3137,0.7299 -2.01576,1.0052 -1.62971,0.6659 -3.34954,1.1358 -5.11619,1.2137 -0.23494,-0.028 -0.47316,-0.036 -0.70483,-0.084 -1.06915,-0.2218 -1.95849,-0.9501 -2.88635,-1.4745 -0.71173,-0.4694 -1.43273,-0.9226 -2.1532,-1.3781 -0.85481,-0.5431 -1.64889,-1.164 -2.42029,-1.8206 -2.17483,-1.8954 -4.31152,-3.8466 -6.26233,-5.9745 -1.19715,-1.3956 -2.44277,-2.8067 -3.32336,-4.4301 0,0 3.2342,-1.8061 3.2342,-1.8061 z"
       inkscape:connector-curvature="0" />
    <path
       style="opacity:0.74199997;fill:#000000;fill-opacity:0;fill-rule:evenodd;stroke:#100c0c;stroke-width:0.69999999;stroke-linejoin:miter;stroke-miterlimit:4;stroke-dasharray:none;stroke-dashoffset:0;stroke-opacity:1"
       id="path4378"
       d="m 258.35545,-1619.5925 c 1.09641,-0.5286 2.20771,-1.0212 3.32858,-1.4962 1.66286,-0.7419 3.38685,-1.3314 5.06313,-2.0412 1.47536,-0.5677 2.83797,-1.3682 4.2577,-2.0533 1.30122,-0.5067 2.57685,-1.0845 3.90979,-1.5045 1.0103,-0.3787 2.05765,-0.6519 3.10652,-0.9003 0.9722,-0.1762 1.9155,-0.477 2.88143,-0.6784 0.66196,-0.1357 1.33574,-0.183 2.00965,-0.2021 0.51175,-0.023 1.01265,-0.1499 1.52415,-0.2025 0.64751,-0.057 1.29852,-0.037 1.94757,-0.03 1.44352,2e-4 2.88385,0.03 4.32515,0.1081 0.67785,0.059 1.36428,0.02 2.03853,0.1261 0.15084,0.024 0.31132,0.031 0.44669,0.1014 0.34998,0.1826 0.40785,0.4167 0.57605,0.7405 -0.0339,0.2248 -0.009,0.4669 -0.10159,0.6745 -0.54929,1.229 -2.27382,2.4055 -3.40704,3.0396 -1.32888,0.7436 -2.67385,1.458 -4.01077,2.187 -1.84835,0.7003 -3.80605,0.9987 -5.74458,1.3252 -1.0675,0.2138 -2.16273,0.2776 -3.22792,0.505 -0.47692,0.1018 -1.36993,0.3774 -1.83094,0.5143 -1.88739,0.678 -3.84494,1.1904 -5.65644,2.0617 0.91889,-0.5136 1.83184,-1.038 2.75668,-1.5408 0.0471,-0.026 -0.0681,0.094 -0.12003,0.1073 -0.0263,0.01 -0.0112,-0.074 0.0154,-0.08 0.0802,-0.018 0.16313,0.019 0.24504,0.023 0.19449,0.011 0.38964,0.039 0.58394,0.025 0.33334,-0.025 0.66183,-0.094 0.99275,-0.1412 0.48535,-0.1461 0.98079,-0.262 1.45605,-0.4382 0.72395,-0.2684 1.42976,-0.5839 2.13694,-0.8938 0.31587,-0.1384 5.78255,-2.6289 5.85796,-2.6622 2.88175,-1.2733 3.62578,-1.5486 6.52512,-2.7228 2.44682,-0.9965 4.91966,-1.9268 7.37722,-2.896 0.94741,-0.3736 1.90824,-0.7089 2.77194,-1.2527 -1.00644,0.5827 -2.01287,1.1653 -3.0193,1.7479 -0.0326,0.1517 0.0309,0.3686 -0.0979,0.4549 -0.3287,0.2203 -0.75448,0.2389 -1.12881,0.3671 -0.63703,0.2182 -1.27032,0.4471 -1.90503,0.672 -3.38236,1.1982 -2.03093,0.7132 -5.6962,2.0715 -3.09855,1.1245 -6.17869,2.3008 -9.23061,3.5466 -0.88621,0.3618 -2.54246,1.0375 -3.47501,1.5202 -0.28047,0.1452 -0.53942,0.3286 -0.80913,0.4929 0.9227,-0.5046 1.8454,-1.0093 2.7681,-1.5139 0.0231,-0.024 0.036,-0.073 0.0694,-0.072 0.15023,0 0.29513,0.057 0.44342,0.081 0.21585,0.035 0.43174,0.071 0.64885,0.097 1.26311,0.1532 0.13814,-0.037 1.27592,0.1735 0.37972,0.076 0.71933,0.2606 0.58991,0.7237 -0.0706,0.2528 -0.37136,0.4119 -0.54295,0.5874 0.32705,0.4217 2.39691,0.5941 2.87189,0.6545 0.77194,0.067 1.54368,0.1455 2.31052,0.258 0.1352,0.02 0.27433,0.025 0.40441,0.067 0.25436,0.082 0.27876,0.1551 0.43211,0.336 0.18086,0.4223 0.0107,0.8264 -0.1584,1.2196 -0.1834,0.3958 -0.37677,0.7882 -0.59187,1.1682 -0.22426,0.3714 -0.45514,0.7387 -0.66629,1.118 -0.20538,0.4243 -0.53615,0.7663 -0.76355,1.1762 -0.17916,0.4411 -0.22315,0.9199 -0.35115,1.3775 -0.1783,0.4723 -0.28234,0.9613 -0.33833,1.4614 -0.044,0.3094 -0.0165,0.1591 -0.0809,0.4513 0,0 -3.32624,1.5951 -3.32624,1.5951 l 0,0 c 0.074,-0.272 0.0362,-0.136 0.11363,-0.4078 0.0424,-0.5219 0.11629,-1.0416 0.30539,-1.5336 0.17016,-0.4597 0.21109,-0.9391 0.32412,-1.4129 0.17018,-0.4493 0.47217,-0.7967 0.75642,-1.1774 0.16329,-0.4087 0.41943,-0.7823 0.66999,-1.1417 0.19452,-0.3778 0.39002,-0.7543 0.59827,-1.1224 0.10634,-0.2962 0.27353,-0.5562 0.332,-0.8683 -0.12832,-0.1744 -0.3996,-0.2045 -0.59299,-0.2454 -0.73106,-0.1545 -1.47485,-0.2389 -2.21827,-0.306 -0.84272,-0.095 -2.17123,-0.1367 -2.93102,-0.556 -0.29696,-0.1639 -0.30695,-0.2881 -0.44996,-0.5711 0.0811,-0.3812 0.14394,-0.4566 0.54086,-0.5865 0.0557,-0.018 0.12967,0.018 0.17485,-0.019 0.10322,-0.086 -0.72318,-0.3574 -0.35348,-0.1914 -0.17999,-0.035 -0.35857,-0.078 -0.53998,-0.1042 -0.4973,-0.072 -1.61547,-0.095 -2.02598,-0.3861 -0.1434,-0.1017 -0.42206,-0.3295 -0.28723,-0.4423 1.00176,-0.8382 2.20954,-1.3937 3.31431,-2.0905 1.2539,-0.6469 2.56887,-1.1315 3.88589,-1.6368 3.02745,-1.1615 6.06885,-2.2863 9.09935,-3.4397 2.68772,-1.0353 5.37359,-2.0777 8.0674,-3.0971 0.45479,-0.1721 0.88618,-0.4518 1.36989,-0.5015 0.2238,-0.023 0.77471,0.1501 0.60542,0.2983 -0.94425,0.8265 -2.13609,1.3175 -3.20413,1.9763 -0.79907,0.37 -1.63703,0.646 -2.46445,0.9451 -2.35946,0.8528 -4.71785,1.7097 -7.04621,2.6453 -2.93745,1.1853 -3.58595,1.4149 -6.51176,2.7287 -6.68308,3.0009 0.1018,0.042 -6.09795,2.8416 -0.77596,0.3504 -1.54899,0.7103 -2.34496,1.0124 -0.52322,0.1987 -1.07106,0.3251 -1.60659,0.4877 -0.67557,0.094 -1.17807,0.2414 -1.83728,0.113 -0.28521,-0.056 -0.90975,-0.5166 -0.5029,-0.7775 1.11095,-0.7125 2.27595,-1.3369 3.41392,-2.0053 1.83035,-0.768 3.75345,-1.2954 5.61874,-1.97 0.71768,-0.2062 1.14331,-0.3436 1.87267,-0.4938 1.08144,-0.2228 2.18573,-0.3204 3.26907,-0.5329 1.89138,-0.2833 3.79884,-0.5798 5.57684,-1.3197 -0.60874,0.3857 -1.24078,0.7368 -1.82624,1.157 -0.33252,0.2386 0.72244,-0.3871 1.06517,-0.6108 0.84493,-0.5515 1.71606,-1.2471 2.2748,-2.1022 0.0837,-0.128 0.12076,-0.2811 0.18114,-0.4216 -0.0479,-0.098 -0.0738,-0.2092 -0.14363,-0.2924 -0.4076,-0.4857 -2.03712,-0.3247 -2.61161,-0.4258 -1.46526,-0.067 -2.93047,-0.07 -4.39685,-0.032 -0.65839,0.014 -1.31879,0.022 -1.97345,0.1006 -0.51086,0.07 -1.01791,0.1838 -1.53641,0.1734 -0.65017,0.028 -1.29948,0.086 -1.93573,0.2296 -0.94564,0.2202 -1.88596,0.463 -2.83776,0.6567 -1.05022,0.271 -2.09182,0.5669 -3.11231,0.936 -1.29738,0.4261 -2.56245,0.951 -3.81396,1.4953 -1.40556,0.7049 -2.78637,1.4596 -4.25758,2.025 -1.68683,0.6898 -3.41105,1.2877 -5.06798,2.05 -1.17262,0.5095 -2.32518,1.0586 -3.48076,1.6047 0,0 2.91186,-2.2898 2.91186,-2.2898 z"
       inkscape:connector-curvature="0" />
    <path
       style="opacity:0.74199997;fill:#000000;fill-opacity:0;fill-rule:evenodd;stroke:#100c0c;stroke-width:0.69999999;stroke-linejoin:miter;stroke-miterlimit:4;stroke-dasharray:none;stroke-dashoffset:0;stroke-opacity:1"
       id="path4380"
       d="m 223.10933,-1629.9129 c 1.37305,0.8143 2.8757,1.4148 4.41559,1.8328 1.05769,0.2872 2.13808,0.4829 3.20713,0.7244 0,0 -2.28597,1.5938 -2.28597,1.5938 l 0,0 c -1.1519,-0.1961 -2.31247,-0.3467 -3.45571,-0.5882 -1.69272,-0.3576 -3.35217,-0.9162 -4.94181,-1.5939 0,0 3.06077,-1.9689 3.06077,-1.9689 z"
       inkscape:connector-curvature="0" />
    <path
       style="opacity:0.74199997;fill:#000000;fill-opacity:0;fill-rule:evenodd;stroke:#100c0c;stroke-width:0.69999999;stroke-linejoin:miter;stroke-miterlimit:4;stroke-dasharray:none;stroke-dashoffset:0;stroke-opacity:1"
       id="path4382"
       d="m 208.65174,-1658.5799 c 0.0412,2.3153 1.69649,4.4141 2.91387,6.2305 4.20357,5.5728 9.5494,10.1652 15.23359,14.1729 1.24595,0.8785 2.53911,1.688 3.80866,2.532 4.21395,2.7415 8.70305,5.0209 13.31707,7.0017 0,0 -2.72143,1.7976 -2.72143,1.7976 l 0,0 c -4.33123,-2.2969 -8.56498,-4.7834 -12.66183,-7.4771 -3.09383,-2.0912 -4.60706,-3.0475 -7.5871,-5.3339 -4.33345,-3.3247 -8.3893,-7.0227 -11.93606,-11.1826 -1.49212,-1.8089 -3.27437,-3.6483 -3.67025,-6.0579 0,0 3.30348,-1.6832 3.30348,-1.6832 z"
       inkscape:connector-curvature="0" />
    <path
       style="opacity:0.74199997;fill:#000000;fill-opacity:0;fill-rule:evenodd;stroke:#100c0c;stroke-width:0.69999999;stroke-linejoin:miter;stroke-miterlimit:4;stroke-dasharray:none;stroke-dashoffset:0;stroke-opacity:1"
       id="path4384"
       d="m 218.23276,-1661.6131 c 2.35733,3.565 5.85339,6.2545 9.41266,8.5383 1.46123,0.9376 2.9841,1.7755 4.47615,2.6632 1.9595,1.0013 3.89964,2.0415 5.87849,3.004 4.48836,2.1831 10.29771,4.7572 14.84171,6.7311 6.71999,2.9193 13.50419,5.6579 20.31471,8.3562 1.48536,0.573 2.97072,1.1459 4.45607,1.7188 0,0 -2.01849,1.346 -2.01849,1.346 l 0,0 c -1.37759,-0.6449 -2.75518,-1.2898 -4.13277,-1.9347 -6.54039,-3.0022 -13.1134,-5.9173 -19.73117,-8.7459 -5.08151,-2.1721 -10.2026,-4.2514 -15.27097,-6.4539 -2.0855,-0.9063 -4.14893,-1.8625 -6.2234,-2.7938 -1.58044,-0.8387 -3.19619,-1.614 -4.74134,-2.5161 -1.2265,-0.7161 -2.39609,-1.5266 -3.56499,-2.3333 -2.45325,-1.693 -4.82363,-3.5274 -6.86314,-5.7107 0,0 3.16648,-1.8692 3.16648,-1.8692 z"
       inkscape:connector-curvature="0" />
    <path
       style="opacity:0.74199997;fill:#000000;fill-opacity:0;fill-rule:evenodd;stroke:#100c0c;stroke-width:0.69999999;stroke-linejoin:miter;stroke-miterlimit:4;stroke-dasharray:none;stroke-dashoffset:0;stroke-opacity:1"
       id="path4386"
       d="m 256.70358,-1655.9245 c 4.82677,2.7244 9.78114,5.2295 14.80243,7.5753 2.00524,0.9368 4.03534,1.8194 6.05301,2.7291 6.0096,2.6671 12.08713,5.1703 18.18877,7.617 0,0 -1.69809,1.1338 -1.69809,1.1338 l 0,0 c -5.99523,-2.6105 -12.00403,-5.1887 -18.03089,-7.7256 -2.07604,-0.8718 -4.15207,-1.7436 -6.22811,-2.6153 -1.87223,-0.7744 -3.7478,-1.5407 -5.61668,-2.3231 -3.09363,-1.2951 -6.16351,-2.6519 -9.26431,-3.9298 -0.40174,-0.1656 -0.81078,-0.3129 -1.21616,-0.4693 0,0 3.01003,-1.9921 3.01003,-1.9921 z"
       inkscape:connector-curvature="0" />
    <path
       style="opacity:0.74199997;fill:#000000;fill-opacity:0;fill-rule:evenodd;stroke:#100c0c;stroke-width:0.69999999;stroke-linejoin:miter;stroke-miterlimit:4;stroke-dasharray:none;stroke-dashoffset:0;stroke-opacity:1"
       id="path4388"
       d="m 315.9287,-1626.85 c 0.56489,1.5168 1.26298,3.0216 2.13638,4.3884 0.36006,0.5634 0.76027,1.1002 1.1404,1.6503 2.67367,3.4329 5.7875,6.502 9.0922,9.3229 1.12202,1.0106 2.36871,1.893 3.44523,2.9541 0.32925,0.3267 0.66756,0.6305 1.05975,0.879 0,0 -3.11538,1.9892 -3.11538,1.9892 l 0,0 c -0.38856,-0.2847 -0.7365,-0.6046 -1.05698,-0.9651 -1.01113,-1.0701 -2.04262,-2.1218 -3.1109,-3.1352 -3.1465,-3.0094 -6.24887,-6.0829 -9.04446,-9.4254 -0.42834,-0.5335 -0.87982,-1.0492 -1.28501,-1.6005 -0.98044,-1.3339 -1.67628,-2.8456 -2.49901,-4.2745 0,0 3.23778,-1.7832 3.23778,-1.7832 z"
       inkscape:connector-curvature="0" />
    <path
       style="opacity:0.74199997;fill:#000000;fill-opacity:0;fill-rule:evenodd;stroke:#100c0c;stroke-width:0.69999999;stroke-linejoin:miter;stroke-miterlimit:4;stroke-dasharray:none;stroke-dashoffset:0;stroke-opacity:1"
       id="path4390"
       d="m 333.2168,-1623.0185 c 0.66008,1.5758 1.52393,3.0674 2.45253,4.4993 0.90241,1.2921 1.89667,2.5138 2.88335,3.7411 0.47937,0.5844 0.92824,1.1938 1.37209,1.8052 0,0 -3.16015,1.862 -3.16015,1.862 l 0,0 c -0.42016,-0.6205 -0.85534,-1.2301 -1.31023,-1.8258 -0.92041,-1.2809 -1.84187,-2.5607 -2.77847,-3.8298 -0.9688,-1.4353 -1.74987,-2.9766 -2.65349,-4.4523 0,0 3.19437,-1.7997 3.19437,-1.7997 z"
       inkscape:connector-curvature="0" />
    <path
       style="opacity:0.74199997;fill:#000000;fill-opacity:0;fill-rule:evenodd;stroke:#100c0c;stroke-width:0.69999999;stroke-linejoin:miter;stroke-miterlimit:4;stroke-dasharray:none;stroke-dashoffset:0;stroke-opacity:1"
       id="path4392"
       d="m 340.44598,-1626.9671 c 0.055,0.2246 0.0962,0.4529 0.16487,0.6736 0.20048,0.6439 0.50159,1.3381 0.76826,1.9512 0.42148,0.969 0.86361,1.9259 1.33787,2.87 0.11386,0.2231 0.22771,0.4463 0.34157,0.6694 0,0 -3.07713,1.7428 -3.07713,1.7428 l 0,0 c -0.10035,-0.2308 -0.20071,-0.4617 -0.30106,-0.6925 -0.80537,-1.8243 -1.63338,-3.6378 -2.44691,-5.4578 0,0 3.21253,-1.7567 3.21253,-1.7567 z"
       inkscape:connector-curvature="0" />
    <path
       style="opacity:0.74199997;fill:#000000;fill-opacity:0;fill-rule:evenodd;stroke:#100c0c;stroke-width:0.69999999;stroke-linejoin:miter;stroke-miterlimit:4;stroke-dasharray:none;stroke-dashoffset:0;stroke-opacity:1"
       id="path4394"
       d="m 345.72863,-1618.9065 c 0.66575,0.9472 1.45878,1.8019 2.23689,2.6574 0,0 -3.02141,1.8292 -3.02141,1.8292 l 0,0 c -0.7765,-0.8772 -1.55785,-1.7495 -2.3737,-2.5904 0,0 3.15822,-1.8962 3.15822,-1.8962 z"
       inkscape:connector-curvature="0" />
    <path
       style="opacity:0.74199997;fill:#000000;fill-opacity:0;fill-rule:evenodd;stroke:#100c0c;stroke-width:0.69999999;stroke-linejoin:miter;stroke-miterlimit:4;stroke-dasharray:none;stroke-dashoffset:0;stroke-opacity:1"
       id="path4396"
       d="m 333.70221,-1644.4724 c 1.66175,-0.021 3.10062,0.754 4.51403,1.5469 0.7255,0.407 1.4373,0.838 2.15596,1.257 4.31246,2.7124 8.52551,5.6116 12.45632,8.8592 0.71157,0.5879 1.39525,1.2088 2.09288,1.8132 2.08271,1.9369 4.03919,4.0366 5.54582,6.4605 0.54394,0.8752 1.17133,2.0737 1.66374,2.9896 0.81893,1.8417 0.42095,0.9485 1.19371,2.6797 0,0 -2.92917,1.6442 -2.92917,1.6442 l 0,0 c -0.71065,-1.753 -0.33768,-0.8555 -1.12159,-2.6914 -0.63157,-1.2626 -0.84892,-1.757 -1.59482,-2.9906 -1.45422,-2.4051 -3.26095,-4.5748 -5.28023,-6.5254 -0.67449,-0.6131 -1.33167,-1.2458 -2.02348,-1.8393 -3.87241,-3.322 -8.13699,-6.1805 -12.54199,-8.7407 -2.22737,-1.1131 -4.53288,-2.4917 -7.11695,-2.2936 0,0 2.98577,-2.1693 2.98577,-2.1693 z"
       inkscape:connector-curvature="0" />
    <g
       id="g4416"
       inkscape:export-xdpi="89.199997"
       inkscape:export-ydpi="89.199997">
      <path
         inkscape:connector-curvature="0"
         id="path4398"
         d="m 205,-1587.8878 c -1.75,0 -10.5,17.25 0.5,11 11,-6.25 -0.5,-11 -0.5,-11 z"
         style="fill:#ffd9a3;fill-rule:evenodd;stroke:#000000;stroke-width:1px;stroke-linecap:butt;stroke-linejoin:miter;stroke-opacity:1;fill-opacity:1" />
      <path
         inkscape:connector-curvature="0"
         id="path4400"
         d="m 205,-1588.1378 19,-8 4.5,8.75 -20.5,9.5 2,-5.25 z"
         style="fill:#9a6216;fill-rule:evenodd;stroke:#000000;stroke-width:1px;stroke-linecap:butt;stroke-linejoin:miter;stroke-opacity:1;fill-opacity:1" />
      <path
         d="m 204.5,-1581.8878 c 0,0 0,0 0,0 0,0 0,0 0,0 0,0 0,0 0,0 0,0 0,0 0,0 0,0 0,0 0,0 0,0 0,0 0,0 0,0 0,0 0,0 0,0 0,0 0,0 0,0 0,0 0,0 0,0 0,0 0,0 0,0 0,0 0,0 0,0 0,0 0,0 0,0 0,0 0,0 0,0 0,0 0,0 0,0 0,0 0,0 0,0 0,0 0,0 0,0 0,0 0,0 0,0 0,0 0,0 0,0 0,0 0,0 0,0 0,0 0,0 0,0 0,0 0,0 0,0 0,0 0,0 0,0 0,0 0,0 0,0 0,0 0,0 0,0 0,0 0,0 0,0 0,0 0,0 0,0 0,0 0,0 0,0 0,0 0,0 0,0 0,0 0,0 0,0 0,0 0,0 0,0 0,0 0,0 0,0 0,0 0,0 0,0 0,0 0,0 0,0 0,0 0,0 0,0 0,0 0,0 0,0 0,0 0,0 0,0 0,0 0,0 0,0 0,0 0,0 0,0 0,0 0,0 0,0 0,0 0,0 0,0 0,0 0,0 0,0 0,0 0,0 0,0 0,0 0,0 0,0 0,0 0,0 0,0 0,0 0,0 0,0 0,0 0,0 0,0 0,0 0,0 0,0 0,0 0,0 0,0 0,0 0,0 0,0 0,0 0,0 0,0 0,0 0,0 0,0 0,0 0,0 0,0 0,0 0,0 0,0 0,0 0,0 -1e-5,0 0,0 0,0 0,0 1e-5,0 1e-5,0 0,0 0,0 -1e-5,0 0,0 -1e-5,0 -1e-5,0 0,0 0,0 0,0 1e-5,0 2e-5,0 3e-5,0 0,0 0,0 -1e-5,0 -1e-5,0 -3e-5,0 -3e-5,0 -1e-5,0 -1e-5,0 1e-5,0 1e-5,-10e-5 3e-5,0 4e-5,0 2e-5,0 1e-5,0 -1e-5,0 -3e-5,0 -6e-5,0 -7e-5,0 -2e-5,0 0,-10e-5 2e-5,-10e-5 4e-5,0 8e-5,0 1e-4,10e-5 3e-5,0 1e-5,0 -3e-5,10e-5 -5e-5,0 -1.2e-4,0 -1.4e-4,-10e-5 -4e-5,0 -1e-5,-10e-5 5e-5,-10e-5 7e-5,-10e-5 1.6e-4,-10e-5 2e-4,0 5e-5,10e-5 1e-5,2e-4 -7e-5,3e-4 -1.1e-4,0 -2.3e-4,0 -2.9e-4,-10e-5 -7e-5,-10e-5 -2e-5,-3e-4 1e-4,-4e-4 1.5e-4,0 3.3e-4,0 4.1e-4,2e-4 9e-5,10e-5 2e-5,3e-4 -1.5e-4,4e-4 -2e-4,10e-5 -4.6e-4,10e-5 -5.7e-4,-10e-5 -1.3e-4,-3e-4 -2e-5,-6e-4 2.1e-4,-7e-4 2.8e-4,-2e-4 6.4e-4,0 7.9e-4,2e-4 1.9e-4,4e-4 4e-5,8e-4 -2.9e-4,10e-4 -3.9e-4,2e-4 -8.8e-4,0 -0.001,-4e-4 -2.6e-4,-4e-4 -6e-5,-10e-4 3.9e-4,-0 5.4e-4,-3e-4 0.001,0 0.002,5e-4 3.5e-4,6e-4 7e-5,0 -5.5e-4,0 -7.4e-4,4e-4 -0.002,10e-5 -0.002,-7e-4 -4.8e-4,-8e-4 -9e-5,-0 7.6e-4,-0 0.001,-6e-4 0.002,-10e-5 0.003,9e-4 6.5e-4,0 1.2e-4,0 -0.001,0 -0.001,8e-4 -0.003,10e-5 -0.004,-0 -8.8e-4,-0 -1.6e-4,-0 0.001,-0 0.002,-10e-4 0.004,-2e-4 0.005,0 0.001,0 2.1e-4,0 -0.002,0.01 -0.002,0 -0.006,2e-4 -0.007,-0 -0.002,-0 -2.8e-4,-0.01 0.003,-0.01 0.003,-0 0.008,-3e-4 0.009,0 0.002,0 3.6e-4,0.01 -0.003,0.011 -0.004,0 -0.0101,5e-4 -0.0125,-0 -0.003,-0.01 -4.7e-4,-0.012 0.005,-0.014 0.006,-0 0.0134,-5e-4 0.0165,0.01 0.004,0.01 6.1e-4,0.015 -0.006,0.019 -0.008,0 -0.0177,7e-4 -0.0218,-0.01 -0.005,-0.01 -8e-4,-0.02 0.008,-0.025 0.0103,-0.01 0.0233,-9e-4 0.0287,0.01 0.006,0.012 0.001,0.027 -0.0106,0.033 -0.0135,0.01 -0.0305,0 -0.0376,-0.012 -0.008,-0.015 -0.001,-0.035 0.0139,-0.043 0.0177,-0.01 0.0398,-0 0.0491,0.016 0.0108,0.02 0.002,0.045 -0.0181,0.056 -0.023,0.012 -0.0518,0 -0.0638,-0.021 -0.014,-0.026 -0.002,-0.059 0.0236,-0.073 0.0298,-0.016 0.0672,-0 0.0827,0.027 0.018,0.034 0.003,0.076 -0.0306,0.094 -0.0386,0.02 -0.0867,0 -0.1068,-0.035 -0.0232,-0.044 -0.003,-0.098 0.0396,-0.1212 0.0497,-0.026 0.11167,-0 0.13743,0.045 0.0297,0.056 0.004,0.1265 -0.051,0.1557 -0.0637,0.034 -0.14326,0 -0.17625,-0.058 -0.038,-0.072 -0.005,-0.1621 0.0655,-0.1994 0.0815,-0.043 0.18321,-0.01 0.22531,0.074 0.0484,0.092 0.007,0.2069 -0.0838,0.2545 -0.10397,0.055 -0.23353,0.01 -0.28711,-0.095 -0.0615,-0.1173 -0.008,-0.2634 0.10689,-0.3237 0.13217,-0.069 0.29676,-0.01 0.36473,0.1205 0.0779,0.1489 0.0104,0.3342 -0.13592,0.4107 -0.12222,0.064 -0.27416,0.042 -0.37792,-0.047"
         sodipodi:t0="0.0461495"
         sodipodi:argument="-248.97122"
         sodipodi:radius="0.35355338"
         sodipodi:revolution="40"
         sodipodi:expansion="18.780001"
         sodipodi:cy="-1581.8878"
         sodipodi:cx="204.5"
         id="path4402"
         style="fill:none;fill-rule:evenodd;stroke:#000000;stroke-width:1px;stroke-linecap:butt;stroke-linejoin:miter;stroke-opacity:1"
         sodipodi:type="spiral" />
      <path
         d="m 204.5,-1585.3878 c 0,0 0,0 0,0 0,0 0,0 0,0 0,0 0,0 0,0 0,0 0,0 0,0 0,0 0,0 0,0 0,0 0,0 0,0 0,0 0,0 0,0 0,0 0,0 0,0 0,0 0,0 0,0 0,0 0,0 0,0 0,0 0,0 0,0 0,0 0,0 0,0 0,0 0,0 0,0 0,0 0,0 0,0 0,0 0,0 0,0 0,0 0,0 0,0 0,0 0,0 0,0 0,0 0,0 0,0 0,0 0,0 0,0 0,0 0,0 0,0 0,0 0,0 0,0 0,0 0,0 0,0 0,0 0,0 0,0 0,0 0,0 0,0 0,0 0,0 0,0 0,0 0,0 0,0 0,0 0,0 0,0 0,0 0,0 0,0 0,0 0,0 0,0 0,0 0,0 0,0 0,0 0,0 0,0 0,0 0,0 0,0 0,0 0,0 0,0 0,0 0,0 0,0 0,0 0,0 0,0 0,0 0,0 0,0 0,0 0,0 0,0 0,0 0,0 0,0 0,0 0,0 0,0 0,0 0,0 0,0 0,0 0,0 0,0 0,0 0,0 0,0 0,0 0,0 0,0 0,0 0,0 0,0 0,0 0,0 0,0 0,0 0,0 0,0 0,0 0,0 0,0 0,0 0,0 0,0 0,0 0,0 0,0 0,0 0,0 0,0 0,0 0,0 0,0 1e-5,0 0,0 0,0 0,0 -1e-5,0 -1e-5,0 0,0 0,0 1e-5,0 0,0 1e-5,0 1e-5,0 0,0 0,0 -1e-5,0 -1e-5,0 -1e-5,0 -2e-5,0 0,0 1e-5,0 2e-5,0 1e-5,0 2e-5,0 2e-5,0 1e-5,0 0,0 -2e-5,0 -1e-5,0 -3e-5,0 -4e-5,0 0,0 1e-5,-10e-5 3e-5,-10e-5 3e-5,0 6e-5,0 7e-5,10e-5 0,0 -2e-5,0 -5e-5,0 -4e-5,10e-5 -8e-5,0 -9e-5,0 -2e-5,-10e-5 2e-5,-10e-5 6e-5,-10e-5 6e-5,0 1.2e-4,0 1.4e-4,10e-5 2e-5,0 -3e-5,10e-5 -1e-4,10e-5 -8e-5,10e-5 -1.7e-4,0 -1.9e-4,-10e-5 -3e-5,-10e-5 4e-5,-2e-4 1.4e-4,-2e-4 1.2e-4,-10e-5 2.5e-4,0 2.8e-4,10e-5 4e-5,2e-4 -6e-5,3e-4 -2e-4,4e-4 -1.8e-4,0 -3.6e-4,-10e-5 -4.1e-4,-3e-4 -6e-5,-2e-4 9e-5,-4e-4 2.9e-4,-4e-4 2.6e-4,-10e-5 5.1e-4,1e-4 5.8e-4,3e-4 8e-5,3e-4 -1.2e-4,6e-4 -4.1e-4,7e-4 -3.6e-4,10e-5 -7.3e-4,-2e-4 -8.2e-4,-5e-4 -1.2e-4,-4e-4 1.7e-4,-9e-4 5.9e-4,-10e-4 5e-4,-10e-5 0.001,2e-4 0.001,7e-4 1.6e-4,6e-4 -2.4e-4,0 -8.2e-4,0 -7.1e-4,2e-4 -0.001,-3e-4 -0.002,-10e-4 -2.2e-4,-8e-4 3.4e-4,-0 0.001,-0 9.8e-4,-2e-4 0.002,4e-4 0.002,0 3e-4,0 -4.8e-4,0 -0.002,0 -0.001,4e-4 -0.003,-6e-4 -0.003,-0 -4.2e-4,-0 6.6e-4,-0 0.002,-0 0.002,-5e-4 0.004,8e-4 0.004,0 5.7e-4,0 -9e-4,0 -0.003,0 -0.003,7e-4 -0.005,-10e-4 -0.006,-0 -7.7e-4,-0 0.001,-0.01 0.004,-0.01 0.003,-8e-4 0.007,0 0.008,0 0.001,0 -0.002,0.01 -0.006,0.01 -0.005,0 -0.009,-0 -0.0106,-0.01 -0.001,-0.01 0.002,-0.011 0.008,-0.012 0.006,-0 0.0127,0 0.0143,0.01 0.002,0.01 -0.003,0.015 -0.0103,0.016 -0.009,0 -0.017,-0 -0.0191,-0.012 -0.002,-0.01 0.004,-0.02 0.0138,-0.022 0.0113,-0 0.0227,0 0.0255,0.016 0.003,0.013 -0.006,0.026 -0.0184,0.029 -0.0151,0 -0.0302,-0.01 -0.0339,-0.021 -0.004,-0.017 0.007,-0.035 0.0245,-0.039 0.02,-0.01 0.0399,0.01 0.0448,0.028 0.006,0.023 -0.01,0.046 -0.0323,0.051 -0.0263,0.01 -0.0526,-0.011 -0.059,-0.037 -0.007,-0.03 0.013,-0.06 0.0426,-0.068 0.0345,-0.01 0.0691,0.015 0.0774,0.049 0.01,0.04 -0.0171,0.079 -0.0559,0.089 -0.0452,0.011 -0.0903,-0.02 -0.10112,-0.064 -0.0126,-0.052 0.0225,-0.1031 0.073,-0.1154 0.0589,-0.014 0.1176,0.026 0.13163,0.083 0.0163,0.067 -0.0293,0.134 -0.0951,0.1499 -0.0764,0.019 -0.15262,-0.033 -0.17074,-0.1083 -0.021,-0.087 0.0381,-0.1736 0.12336,-0.1942 0.0988,-0.024 0.19734,0.043 0.22067,0.1403 0.027,0.1122 -0.0494,0.2241 -0.15946,0.2506 -0.12734,0.031 -0.25429,-0.056 -0.28423,-0.1811 -0.0346,-0.1444 0.0637,-0.2883 0.20543,-0.3222 0.16357,-0.039 0.32656,0.072 0.36485,0.2329 0.0442,0.1852 -0.0819,0.3696 -0.26374,0.4129 -0.20943,0.05 -0.41801,-0.093 -0.46682,-0.2985 -0.0562,-0.2367 0.10508,-0.4724 0.33749,-0.5274 0.26728,-0.063 0.53336,0.1188 0.59539,0.3813 0.0713,0.3016 -0.13428,0.6018 -0.4305,0.6716 -0.34004,0.08 -0.67841,-0.1516 -0.757,-0.4856 -0.0901,-0.3831 0.17107,-0.7643 0.54743,-0.8526 0.4313,-0.1013 0.86029,0.1928 0.95957,0.6166 0.05,0.2133 0.0151,0.4413 -0.0924,0.6319"
         sodipodi:t0="0.0461495"
         sodipodi:argument="-250.73941"
         sodipodi:radius="0.90138781"
         sodipodi:revolution="40"
         sodipodi:expansion="18.780001"
         sodipodi:cy="-1585.3878"
         sodipodi:cx="204.5"
         id="path4404"
         style="fill:none;fill-rule:evenodd;stroke:#000000;stroke-width:1px;stroke-linecap:butt;stroke-linejoin:miter;stroke-opacity:1"
         sodipodi:type="spiral" />
      <path
         d="m 207.75,-1582.3878 c 0,0 0,0 0,0 0,0 0,0 0,0 0,0 0,0 0,0 0,0 0,0 0,0 0,0 0,0 0,0 0,0 0,0 0,0 0,0 0,0 0,0 0,0 0,0 0,0 0,0 0,0 0,0 0,0 0,0 0,0 0,0 0,0 0,0 0,0 0,0 0,0 0,0 0,0 0,0 0,0 0,0 0,0 0,0 0,0 0,0 0,0 0,0 0,0 0,0 0,0 0,0 0,0 0,0 0,0 0,0 0,0 0,0 0,0 0,0 0,0 0,0 0,0 0,0 0,0 0,0 0,0 0,0 0,0 0,0 0,0 0,0 0,0 0,0 0,0 0,0 0,0 0,0 0,0 0,0 0,0 0,0 0,0 0,0 0,0 0,0 0,0 0,0 0,0 0,0 0,0 0,0 0,0 0,0 0,0 0,0 0,0 0,0 0,0 0,0 0,0 0,0 0,0 0,0 0,0 0,0 0,0 0,0 0,0 0,0 0,0 0,0 0,0 0,0 0,0 0,0 0,0 0,0 0,0 0,0 0,0 0,0 0,0 0,0 0,0 0,0 0,0 0,0 0,0 0,0 0,0 0,0 0,0 0,0 0,0 0,0 0,0 0,0 0,0 0,0 0,0 0,0 0,0 0,0 0,0 0,0 0,0 0,0 0,0 0,0 0,0 0,0 0,0 0,0 -1e-5,0 -1e-5,0 0,0 0,0 0,0 0,0 1e-5,0 1e-5,0 1e-5,0 -1e-5,0 -1e-5,0 -2e-5,0 0,0 -1e-5,0 0,0 0,0 1e-5,0 2e-5,0 1e-5,0 1e-5,0 1e-5,0 -1e-5,0 -2e-5,0 -4e-5,0 -1e-5,0 -1e-5,0 -1e-5,0 1e-5,-10e-5 4e-5,-10e-5 5e-5,-10e-5 3e-5,10e-5 3e-5,10e-5 2e-5,10e-5 -1e-5,0 -5e-5,0 -8e-5,0 -3e-5,0 -4e-5,0 -2e-5,-10e-5 2e-5,0 7e-5,0 1.1e-4,0 5e-5,0 6e-5,10e-5 4e-5,10e-5 -3e-5,10e-5 -1.1e-4,10e-5 -1.7e-4,10e-5 -7e-5,0 -9e-5,-10e-5 -5e-5,-2e-4 5e-5,-10e-5 1.6e-4,-10e-5 2.4e-4,-10e-5 1e-4,10e-5 1.3e-4,2e-4 8e-5,3e-4 -7e-5,10e-5 -2.3e-4,2e-4 -3.5e-4,10e-5 -1.5e-4,-10e-5 -1.9e-4,-3e-4 -1.1e-4,-4e-4 1e-4,-2e-4 3.3e-4,-2e-4 5e-4,-10e-5 2.1e-4,10e-5 2.7e-4,4e-4 1.5e-4,6e-4 -1.4e-4,2e-4 -4.7e-4,3e-4 -7.1e-4,10e-5 -3e-4,-10e-5 -3.8e-4,-5e-4 -2.1e-4,-8e-4 2e-4,-4e-4 6.6e-4,-5e-4 0.001,-3e-4 4.2e-4,3e-4 5.4e-4,8e-4 3.1e-4,0 -2.8e-4,5e-4 -9.4e-4,7e-4 -0.001,4e-4 -5.9e-4,-3e-4 -7.5e-4,-0 -4.2e-4,-0 3.9e-4,-7e-4 0.001,-9e-4 0.002,-5e-4 8.2e-4,5e-4 0.001,0 5.9e-4,0 -5.5e-4,9e-4 -0.002,0 -0.003,6e-4 -0.001,-6e-4 -0.001,-0 -8e-4,-0 7.6e-4,-0 0.003,-0 0.004,-10e-4 0.002,9e-4 0.002,0 0.001,0 -0.001,0 -0.003,0 -0.005,0 -0.002,-0 -0.003,-0 -0.001,-0.01 0.001,-0 0.005,-0 0.007,-0 0.003,0 0.004,0.01 0.002,0.01 -0.002,0 -0.006,0 -0.01,0 -0.004,-0 -0.005,-0.01 -0.003,-0.011 0.003,-0 0.009,-0.01 0.0133,-0 0.005,0 0.007,0.01 0.004,0.015 -0.004,0.01 -0.0119,0.01 -0.0179,0 -0.007,-0 -0.009,-0.014 -0.005,-0.021 0.005,-0.01 0.0159,-0.01 0.024,-0.01 0.01,0.01 0.0121,0.018 0.007,0.028 -0.007,0.011 -0.0213,0.014 -0.0321,0.01 -0.0128,-0.01 -0.0162,-0.024 -0.009,-0.037 0.009,-0.015 0.0283,-0.019 0.0427,-0.01 0.0169,0.01 0.0214,0.033 0.0116,0.049 -0.0115,0.019 -0.0375,0.025 -0.0566,0.013 -0.0223,-0.013 -0.0283,-0.043 -0.0153,-0.065 0.0152,-0.026 0.0495,-0.032 0.0746,-0.017 0.0294,0.017 0.0371,0.057 0.02,0.086 -0.02,0.034 -0.0651,0.043 -0.098,0.023 -0.0385,-0.023 -0.0486,-0.074 -0.0261,-0.1122 0.0263,-0.044 0.0852,-0.055 0.12826,-0.03 0.0502,0.03 0.0634,0.097 0.034,0.1466 -0.0343,0.057 -0.11111,0.072 -0.1672,0.039 -0.0652,-0.039 -0.0824,-0.1267 -0.044,-0.1906 0.0446,-0.074 0.14435,-0.094 0.21715,-0.05 0.0845,0.051 0.1067,0.1643 0.0568,0.2471 -0.0578,0.096 -0.18687,0.1213 -0.28101,0.064 -0.10901,-0.066 -0.13766,-0.2124 -0.0731,-0.3193 0.0747,-0.1236 0.24108,-0.1561 0.36239,-0.083 0.1402,0.085 0.17701,0.2735 0.0938,0.411 -0.0961,0.1588 -0.30995,0.2005 -0.46575,0.1061 -0.17972,-0.1089 -0.22683,-0.351 -0.11986,-0.5274 0.12328,-0.2032 0.39717,-0.2565 0.59661,-0.1353 0.22963,0.1394 0.28976,0.449 0.15272,0.6744 -0.15762,0.2592 -0.50728,0.3271 -0.76178,0.1722 -0.29248,-0.178 -0.36896,-0.5727 -0.19399,-0.8598 0.20091,-0.3297 0.64591,-0.4159 0.96964,-0.2184 0.37138,0.2266 0.46837,0.728 0.24566,1.0927 -0.25527,0.418 -0.81988,0.5271 -1.23042,0.2762 -0.34306,-0.2098 -0.51715,-0.6219 -0.44946,-1.0153"
         sodipodi:t0="0.0461495"
         sodipodi:argument="-254.22403"
         sodipodi:radius="1.0307764"
         sodipodi:revolution="40"
         sodipodi:expansion="18.780001"
         sodipodi:cy="-1582.3878"
         sodipodi:cx="207.75"
         id="path4406"
         style="fill:none;fill-rule:evenodd;stroke:#000000;stroke-width:1px;stroke-linecap:butt;stroke-linejoin:miter;stroke-opacity:1"
         sodipodi:type="spiral" />
      <path
         d="m 202.5,-1580.1378 c 0,0 0,0 0,0 0,0 0,0 0,0 0,0 0,0 0,0 0,0 0,0 0,0 0,0 0,0 0,0 0,0 0,0 0,0 0,0 0,0 0,0 0,0 0,0 0,0 0,0 0,0 0,0 0,0 0,0 0,0 0,0 0,0 0,0 0,0 0,0 0,0 0,0 0,0 0,0 0,0 0,0 0,0 0,0 0,0 0,0 0,0 0,0 0,0 0,0 0,0 0,0 0,0 0,0 0,0 0,0 0,0 0,0 0,0 0,0 0,0 0,0 0,0 0,0 0,0 0,0 0,0 0,0 0,0 0,0 0,0 0,0 0,0 0,0 0,0 0,0 0,0 0,0 0,0 0,0 0,0 0,0 0,0 0,0 0,0 0,0 0,0 0,0 0,0 0,0 0,0 0,0 0,0 0,0 0,0 0,0 0,0 0,0 0,0 0,0 0,0 0,0 0,0 0,0 0,0 0,0 0,0 0,0 0,0 0,0 0,0 0,0 0,0 0,0 0,0 0,0 0,0 0,0 0,0 0,0 0,0 0,0 0,0 0,0 0,0 0,0 0,0 0,0 0,0 0,0 0,0 0,0 0,0 0,0 0,0 0,0 0,0 0,0 0,0 0,0 0,0 0,0 0,0 0,0 0,0 0,0 0,0 0,0 0,0 -1e-5,0 -1e-5,0 0,0 1e-5,0 1e-5,0 1e-5,0 1e-5,0 1e-5,0 0,0 -1e-5,0 -1e-5,0 -1e-5,0 -2e-5,0 -2e-5,0 0,0 1e-5,0 2e-5,0 2e-5,0 2e-5,0 2e-5,0 0,0 -1e-5,0 -3e-5,0 -1e-5,0 -3e-5,0 -3e-5,0 0,0 3e-5,-10e-5 5e-5,-10e-5 3e-5,0 5e-5,10e-5 5e-5,10e-5 -1e-5,0 -4e-5,10e-5 -7e-5,10e-5 -4e-5,-10e-5 -7e-5,-10e-5 -7e-5,-10e-5 0,-10e-5 5e-5,-10e-5 1e-4,-10e-5 6e-5,0 1.1e-4,0 1e-4,10e-5 0,10e-5 -7e-5,10e-5 -1.5e-4,10e-5 -9e-5,0 -1.6e-4,-10e-5 -1.5e-4,-10e-5 0,-2e-4 1.1e-4,-2e-4 2.2e-4,-2e-4 1.4e-4,0 2.3e-4,10e-5 2.3e-4,2e-4 -1e-5,2e-4 -1.7e-4,3e-4 -3.3e-4,3e-4 -1.9e-4,0 -3.4e-4,-2e-4 -3.3e-4,-4e-4 2e-5,-2e-4 2.4e-4,-4e-4 4.7e-4,-4e-4 2.9e-4,0 4.9e-4,3e-4 4.8e-4,6e-4 -3e-5,3e-4 -3.4e-4,6e-4 -6.8e-4,5e-4 -4.1e-4,0 -7e-4,-4e-4 -6.7e-4,-8e-4 3e-5,-4e-4 4.8e-4,-8e-4 9.6e-4,-8e-4 5.8e-4,10e-5 0.001,6e-4 9.6e-4,0 -5e-5,7e-4 -6.9e-4,0 -0.001,0 -8.2e-4,0 -0.001,-8e-4 -0.001,-0 7e-5,-0 9.8e-4,-0 0.002,-0 0.001,10e-5 0.002,0 0.002,0 -9e-5,0 -0.001,0 -0.003,0 -0.002,-10e-5 -0.003,-0 -0.003,-0 1.4e-4,-0 0.002,-0 0.004,-0 0.002,2e-4 0.004,0 0.004,0 -1.9e-4,0 -0.003,0 -0.005,0 -0.003,-2e-4 -0.005,-0 -0.005,-0.01 2.7e-4,-0 0.004,-0.01 0.007,-0.01 0.004,3e-4 0.007,0 0.007,0.01 -3.8e-4,0.01 -0.005,0.01 -0.01,0.01 -0.006,-5e-4 -0.01,-0.01 -0.01,-0.012 5.3e-4,-0.01 0.007,-0.012 0.0136,-0.011 0.008,6e-4 0.0135,0.01 0.0129,0.016 -7.4e-4,0.01 -0.009,0.016 -0.0184,0.015 -0.0107,-8e-4 -0.0183,-0.011 -0.0175,-0.021 0.001,-0.012 0.0127,-0.021 0.0249,-0.02 0.0144,0 0.0246,0.015 0.0235,0.029 -0.001,0.017 -0.0171,0.029 -0.0334,0.027 -0.0193,-0 -0.033,-0.02 -0.0314,-0.039 0.002,-0.022 0.0229,-0.038 0.0447,-0.036 0.0258,0 0.044,0.026 0.0419,0.052 -0.003,0.03 -0.0305,0.051 -0.0596,0.048 -0.0342,-0 -0.0584,-0.035 -0.0555,-0.069 0.003,-0.039 0.0405,-0.067 0.0791,-0.064 0.0453,0 0.0773,0.047 0.0734,0.091 -0.005,0.052 -0.0536,0.089 -0.1045,0.084 -0.0596,-0.01 -0.10178,-0.062 -0.0966,-0.1199 0.006,-0.068 0.0705,-0.1166 0.1375,-0.1106 0.0782,0.01 0.1335,0.081 0.12655,0.1575 -0.008,0.09 -0.0925,0.1527 -0.18022,0.1447 -0.10226,-0.01 -0.17443,-0.1058 -0.16522,-0.2061 0.0107,-0.1167 0.12088,-0.1991 0.2353,-0.1885 0.13312,0.012 0.22705,0.138 0.21491,0.2685 -0.0141,0.1517 -0.15734,0.2587 -0.30608,0.2448 -0.17269,-0.016 -0.29447,-0.1793 -0.27852,-0.3486 0.0185,-0.1965 0.20404,-0.3349 0.39669,-0.3167 0.22321,0.021 0.38056,0.2321 0.3597,0.451 -0.0241,0.2535 -0.26368,0.4321 -0.51233,0.4083 -0.28752,-0.028 -0.49013,-0.2994 -0.46293,-0.5815 0.0314,-0.3259 0.33957,-0.5555 0.65939,-0.5245 0.36911,0.036 0.62912,0.3848 0.59382,0.7471 -0.0407,0.4177 -0.43585,0.7119 -0.84585,0.6717 -0.47231,-0.046 -0.80488,-0.4932 -0.75922,-0.9568 0.0525,-0.5336 0.55758,-0.9093 1.08149,-0.8575 0.60242,0.06 1.02646,0.6299 0.96762,1.2215 -0.0676,0.6795 -0.71104,1.1578 -1.3784,1.0911 -0.766,-0.077 -1.30499,-0.802 -1.22942,-1.5544 0.0867,-0.8627 0.90393,-1.4697 1.7514,-1.3842 0.97104,0.098 1.65408,1.018 1.55734,1.972 -0.006,0.057 -0.0141,0.1131 -0.0249,0.169"
         sodipodi:t0="0.046228312"
         sodipodi:argument="-250.63268"
         sodipodi:radius="1.8909838"
         sodipodi:revolution="39.931805"
         sodipodi:expansion="18.780001"
         sodipodi:cy="-1580.1378"
         sodipodi:cx="202.5"
         id="path4408"
         style="fill:none;fill-rule:evenodd;stroke:#000000;stroke-width:1px;stroke-linecap:butt;stroke-linejoin:miter;stroke-opacity:1"
         sodipodi:type="spiral" />
      <path
         inkscape:connector-curvature="0"
         d="m 204.57309,-1581.1343 c -0.20873,-0.5011 -0.49062,-0.942 -0.89741,-1.3021 -0.39193,-0.237 -0.84324,-0.3934 -1.28586,-0.5147 -0.17337,-0.045 -0.38069,-0.05 -0.55176,0.019 -0.0508,0.021 -0.18427,0.1188 -0.1364,0.092 2.98803,-1.6715 4.00894,-2.4015 2.93022,-1.6368 -0.25348,0.3075 -0.40292,0.6748 -0.53905,1.0451 -0.11042,0.4227 -0.27255,0.8274 -0.36313,1.2552 -0.0806,0.4652 -0.0854,0.9388 -0.0916,1.4096 -4e-5,0.4235 0.26739,0.4833 0.62759,0.5308 0.43426,0.016 0.90774,0.1315 1.28085,-0.1354 1.17727,-0.7235 -0.35039,0.2176 -2.85849,1.6328 -0.0475,0.027 0.0904,-0.062 0.12899,-0.1006 0.12133,-0.1213 0.22317,-0.2784 0.3149,-0.4221 0.23933,-0.4035 0.43428,-0.829 0.62649,-1.2561 0,0 3.33283,-1.5302 3.33283,-1.5302 l 0,0 c -0.17784,0.4278 -0.35893,0.8589 -0.59282,1.2593 -0.56734,1.5205 -2.48736,2.1113 -3.85623,2.7012 -0.4654,0.076 -0.94636,0.036 -1.40885,-0.046 -0.48859,-0.1462 -0.83895,-0.4229 -0.87549,-0.9665 0.002,-0.4874 0.003,-0.9763 0.0581,-1.4612 0.0656,-0.4525 0.21831,-0.8669 0.34411,-1.3015 0.1098,-0.3942 0.24763,-0.8024 0.47503,-1.1429 0.59492,-1.4692 2.6776,-2.4516 4.20304,-2.0226 0.47653,0.1665 0.96892,0.3335 1.35953,0.6638 0.4237,0.4161 0.73531,0.8984 1.00963,1.4235 0,0 -3.2342,1.806 -3.2342,1.806 z"
         id="path4410"
         style="opacity:0.74199997;fill:#ffd9a3;fill-opacity:1;fill-rule:evenodd;stroke:#100c0c;stroke-width:0.69999999;stroke-linejoin:miter;stroke-miterlimit:4;stroke-dasharray:none;stroke-dashoffset:0;stroke-opacity:1" />
      <path
         inkscape:connector-curvature="0"
         id="path4412"
         d="m 207.5,-1581.6378 c -0.71116,-0.057 -0.75971,-0.9231 -1.25,-1.25 -0.15504,-0.1034 -0.36824,-0.1182 -0.5,-0.25 -0.0589,-0.059 0.0589,-0.1911 0,-0.25 -0.0589,-0.059 -0.17094,0.026 -0.25,0 -0.17678,-0.059 -0.36824,-0.1182 -0.5,-0.25 -0.0589,-0.059 0.0589,-0.1911 0,-0.25 -0.11785,-0.1178 -0.35093,0.074 -0.5,0 -0.10541,-0.053 -0.14459,-0.1973 -0.25,-0.25 -0.0745,-0.037 -0.16667,0 -0.25,0 -0.50104,0 -0.26313,-0.079 -0.5,0.75 -0.0944,0.3304 -0.12936,0.6783 -0.25,1 -0.19628,0.5234 -0.5,1 -0.75,1.5 -0.0833,0.1667 -0.21346,0.3173 -0.25,0.5 -0.0654,0.3269 0,0.6667 0,1 0,0.083 0,0.1667 0,0.25 0,0.083 0.0589,0.1911 0,0.25 -0.0589,0.059 -0.19108,-0.059 -0.25,0 -0.0113,0.011 0,1.1321 0,1.25 0,0.083 -0.0745,0.2127 0,0.25 0.14907,0.074 0.34189,-0.053 0.5,0 0.1118,0.037 0.13444,0.2269 0.25,0.25 0.32686,0.065 0.66667,0 1,0 0.5,0 1,0 1.5,0 0.41667,0 0.83333,0 1.25,0 0.16667,0 0.35093,0.074 0.5,0 0.0745,-0.037 -0.0589,-0.1911 0,-0.25 0.0589,-0.059 0.19107,0.059 0.25,0 0.16667,-0.1667 -0.16667,-0.3333 0,-0.5 0.0589,-0.059 0.19107,0.059 0.25,0 0.0589,-0.059 0,-0.1667 0,-0.25 0,-0.5833 0,-1.1667 0,-1.75 0,-0.2703 0.009,-1.7415 0,-1.75 -0.2357,-0.2357 -0.66667,0 -1,0 -0.0918,0 -0.98994,-0.01 -1,0 -0.16667,0.1667 0.16667,0.3333 0,0.5 -0.0589,0.059 -0.19108,-0.059 -0.25,0 -0.0589,0.059 0,0.1667 0,0.25 0,0.1179 0.0113,1.2387 0,1.25 -0.0589,0.059 -0.19108,-0.059 -0.25,0 -0.0589,0.059 0.0833,0.25 0,0.25 -0.0833,0 0,-0.1667 0,-0.25"
         style="fill:none;fill-rule:evenodd;stroke:#000000;stroke-width:1px;stroke-linecap:butt;stroke-linejoin:miter;stroke-opacity:1" />
    </g>
  </g>
</svg>
