<?xml version="1.0" encoding="UTF-8" standalone="no"?>
<!-- Created with Inkscape (http://www.inkscape.org/) -->

<svg
   xmlns:dc="http://purl.org/dc/elements/1.1/"
   xmlns:cc="http://creativecommons.org/ns#"
   xmlns:rdf="http://www.w3.org/1999/02/22-rdf-syntax-ns#"
   xmlns:svg="http://www.w3.org/2000/svg"
   xmlns="http://www.w3.org/2000/svg"
   xmlns:sodipodi="http://sodipodi.sourceforge.net/DTD/sodipodi-0.dtd"
   xmlns:inkscape="http://www.inkscape.org/namespaces/inkscape"
   width="210mm"
   height="297mm"
   viewBox="0 0 744.09448819 1052.3622047"
   id="svg2"
   version="1.1"
   inkscape:version="0.91 r13725"
   sodipodi:docname="evilmushroom.svg"
   inkscape:export-filename="E:\My Documents\sureshengming_jdf3\evilmushroom.png"
   inkscape:export-xdpi="9.764267"
   inkscape:export-ydpi="9.764267">
  <defs
     id="defs4">
    <inkscape:perspective
       sodipodi:type="inkscape:persp3d"
       inkscape:vp_x="0 : 526.1811 : 1"
       inkscape:vp_y="0 : 1000 : 0"
       inkscape:vp_z="744.09449 : 526.1811 : 1"
       inkscape:persp3d-origin="372.04724 : 350.7874 : 1"
       id="perspective4219" />
  </defs>
  <sodipodi:namedview
     id="base"
     pagecolor="#ffffff"
     bordercolor="#666666"
     borderopacity="1.0"
     inkscape:pageopacity="0.0"
     inkscape:pageshadow="2"
     inkscape:zoom="0.40332031"
     inkscape:cx="263.13408"
     inkscape:cy="432.16643"
     inkscape:document-units="px"
     inkscape:current-layer="layer1"
     showgrid="false"
     inkscape:window-width="1280"
     inkscape:window-height="737"
     inkscape:window-x="-8"
     inkscape:window-y="-8"
     inkscape:window-maximized="1" />
  <metadata
     id="metadata7">
    <rdf:RDF>
      <cc:Work
         rdf:about="">
        <dc:format>image/svg+xml</dc:format>
        <dc:type
           rdf:resource="http://purl.org/dc/dcmitype/StillImage" />
        <dc:title></dc:title>
      </cc:Work>
    </rdf:RDF>
  </metadata>
  <g
     inkscape:label="Layer 1"
     inkscape:groupmode="layer"
     id="layer1">
    <g
       id="g4234">
      <g
         transform="translate(69.423729,723.99031)"
         id="g4146" />
      <g
         id="g4221">
        <g
           id="g4143">
          <path
             sodipodi:nodetypes="ssscssss"
             inkscape:connector-curvature="0"
             id="path4136"
             d="M 7.4382567,628.38158 C -51.294005,481.24399 193.70908,296.80885 352.07748,301.09828 c 144.35296,3.90982 352.87953,181.50882 297.53027,314.8862 -23.45016,56.50881 -183.477,4.95884 -183.477,4.95884 0,0 43.88401,135.77107 2.47942,178.51816 -63.83627,65.90611 -208.85549,68.32314 -275.2155,4.95884 -42.45644,-40.53981 37.1307,-135.11813 -4.95883,-176.03874 -43.258,-42.05662 -158.630958,56.03345 -180.9975833,0 z"
             style="fill:#ff0000;fill-rule:evenodd;stroke:#000000;stroke-width:1px;stroke-linecap:butt;stroke-linejoin:miter;stroke-opacity:1" />
        </g>
        <g
           id="g4209">
          <g
             id="g4140">
            <path
               sodipodi:nodetypes="csscc"
               inkscape:connector-curvature="0"
               id="path4138"
               d="m 466.13075,628.38159 c 0,0 43.88401,135.7711 2.47942,178.5181 -63.83627,65.9062 -208.85549,68.3232 -275.2155,4.9589 -42.45644,-40.5398 37.1307,-135.1181 -4.95883,-176.0388 80.93807,-59.6374 325.05453,-28.0477 277.69491,-7.4382 z"
               style="fill:#d4aa00;fill-rule:evenodd;stroke:#000000;stroke-width:1px;stroke-linecap:butt;stroke-linejoin:miter;stroke-opacity:1" />
          </g>
          <path
             inkscape:connector-curvature="0"
             id="path4178"
             d="m 171.0799,477.13702 c 0,0 -4.95883,-34.71186 0,0 z"
             style="fill:none;fill-rule:evenodd;stroke:#000000;stroke-width:1px;stroke-linecap:butt;stroke-linejoin:miter;stroke-opacity:1" />
          <path
             sodipodi:nodetypes="sssss"
             inkscape:connector-curvature="0"
             id="path4180"
             d="m 112.47164,442.24 c -31.282543,1.50817 -68.840493,41.93319 -65.649443,78.1827 3.06417,34.80824 44.86662,61.77695 74.809833,58.63703 27.5993,-2.89413 60.35042,-35.2837 59.54249,-67.52142 -0.88357,-35.25506 -38.42409,-70.7581 -68.70288,-69.29831 z"
             style="fill:#000080;fill-rule:evenodd;stroke:#000000;stroke-width:0.66429412px;stroke-linecap:butt;stroke-linejoin:miter;stroke-opacity:1" />
          <path
             sodipodi:nodetypes="sssss"
             inkscape:connector-curvature="0"
             id="path4184"
             d="M 335.37622,418.2986 C 444.12778,265.49271 488.01449,383.77551 506.99867,446.78121 526.45878,511.36644 441.05791,574.47006 384.7317,595.66755 335.57563,614.16667 249.93961,619.34422 232.17841,563.30096 213.56142,504.55737 300.97695,466.63272 335.37622,418.2986 Z"
             style="fill:#00ffff;fill-rule:evenodd;stroke:#000000;stroke-width:0.4860377px;stroke-linecap:butt;stroke-linejoin:miter;stroke-opacity:1" />
          <path
             inkscape:connector-curvature="0"
             id="path4186"
             d="M 193.39468,303.5777 357.03632,112.66244 466.13075,306.05712 Z"
             style="fill:#d4aa00;fill-rule:evenodd;stroke:#000000;stroke-width:1px;stroke-linecap:butt;stroke-linejoin:miter;stroke-opacity:1" />
          <path
             inkscape:connector-curvature="0"
             id="path4186-6"
             d="M 322.43355,306.23684 486.07519,115.32158 595.16962,308.71626 Z"
             style="fill:#806600;fill-rule:evenodd;stroke:#000000;stroke-width:1px;stroke-linecap:butt;stroke-linejoin:miter;stroke-opacity:1" />
          <path
             inkscape:connector-curvature="0"
             id="path4186-0"
             d="M 81.929918,311.19567 245.57156,120.28041 354.66599,313.67509 Z"
             style="fill:#ffcc00;fill-rule:evenodd;stroke:#000000;stroke-width:1px;stroke-linecap:butt;stroke-linejoin:miter;stroke-opacity:1" />
        </g>
      </g>
    </g>
    <g
       id="g4277">
      <g
         id="g4249">
        <g
           transform="translate(69.423729,723.99031)"
           id="g4251" />
        <g
           id="g4253">
          <g
             id="g4255" />
          <g
             id="g4259">
            <g
               id="g4261" />
            <path
               id="path4275"
               style="fill:#ffcc00;fill-rule:evenodd;stroke:#000000;stroke-width:1px;stroke-linecap:butt;stroke-linejoin:miter;stroke-opacity:1"
               d="M 81.929918,311.19567 245.57156,120.28041 354.66599,313.67509 Z M 322.43355,306.23684 486.07519,115.32158 595.16962,308.71626 Z M 193.39468,303.5777 357.03632,112.66244 466.13075,306.05712 Z M 335.37622,418.2986 C 444.12778,265.49271 488.01449,383.77551 506.99867,446.78121 526.45878,511.36644 441.05791,574.47006 384.7317,595.66755 335.57563,614.16667 249.93961,619.34422 232.17841,563.30096 213.56142,504.55737 300.97695,466.63272 335.37622,418.2986 Z M 112.47164,442.24 c -31.282543,1.50817 -68.840493,41.93319 -65.649443,78.1827 3.06417,34.80824 44.86662,61.77695 74.809833,58.63703 27.5993,-2.89413 60.35042,-35.2837 59.54249,-67.52142 -0.88357,-35.25506 -38.42409,-70.7581 -68.70288,-69.29831 z m 58.60826,34.89702 c 0,0 -4.95883,-34.71186 0,0 z m 295.05085,151.24457 c 0,0 43.88401,135.7711 2.47942,178.5181 -63.83627,65.9062 -208.85549,68.3232 -275.2155,4.9589 -42.45644,-40.5398 37.1307,-135.1181 -4.95883,-176.0388 80.93807,-59.6374 325.05453,-28.0477 277.69491,-7.4382 z M 7.4382567,628.38158 C -51.294005,481.24399 193.70908,296.80885 352.07748,301.09828 c 144.35296,3.90982 352.87953,181.50882 297.53027,314.8862 -23.45016,56.50881 -183.477,4.95884 -183.477,4.95884 0,0 43.88401,135.77107 2.47942,178.51816 -63.83627,65.90611 -208.85549,68.32314 -275.2155,4.95884 -42.45644,-40.53981 37.1307,-135.11813 -4.95883,-176.03874 -43.258,-42.05662 -158.630958,56.03345 -180.9975833,0 z" />
          </g>
        </g>
      </g>
    </g>
  </g>
</svg>
